<svg width="172" height="149" viewBox="0 0 172 149" fill="none" xmlns="http://www.w3.org/2000/svg">
<path d="M170.986 73.9206C170.433 113.502 131.896 148.496 84.969 147.874C38.0419 147.252 0.4955 111.25 1.04801 71.6687C1.60052 32.0872 40.0903 0.504101 87.0174 1.12594C133.944 1.74778 171.538 34.339 170.986 73.9206Z" fill="black"/>
<path d="M132.859 83.3029L126.806 81.8025C123.409 81.0104 118.835 79.642 118.346 77.5063C117.996 76.0075 120.234 74.8424 122.757 74.577L122.695 79.0955L126.977 80.0862L127.053 74.6337C127.943 74.571 132.086 74.9624 132.075 75.709C132.068 76.2318 129.912 76.8382 129.889 78.4812C129.867 80.1242 132.664 81.3942 135.923 81.4378C139.552 81.4863 142.677 80.4822 142.705 78.5032C142.761 74.4323 133.452 72.6646 127.083 72.4672L127.097 71.4087C127.167 71.0138 127.254 70.6277 127.353 70.2566C127.692 68.9999 128.616 67.6933 129.798 66.4895C131.176 65.0929 132.391 64.3339 135.577 63.2022C138.783 62.0616 144.291 61.818 144.291 61.818C144.291 61.818 138.949 62.8593 135.458 64.4962C133.002 65.6474 131.854 66.7038 130.692 68.4055C133.013 68.5066 138.325 68.2545 142.46 66.7462C149.187 64.2949 150.689 60.8486 150.689 60.8486C150.689 60.8486 139.365 57.7772 132.21 61.4081C130.518 62.2672 129.515 63.2782 128.614 64.2153C127.708 65.1523 126.028 67.8151 126.028 67.8151C126.635 63.2086 129.419 61.23 130.547 59.2579C132.313 56.4153 133.101 53.3059 128.448 49.5685C118.394 41.4816 98.8595 41 98.8595 41C98.8595 41 99.3191 52.416 107.441 57.8184C111.086 60.2449 115.563 61.6152 119.362 62.3828C120.351 59.1684 120.766 57.8375 119.78 55.034C118.239 50.6576 110.665 46.8792 110.665 46.8792C110.665 46.8792 117.317 48.917 120.705 52.1827C122.902 54.3004 123.509 56.4676 123.533 58.4519C123.555 60.3485 122.491 65.2448 122.855 69.7599L122.824 69.7595L122.786 72.4858C114.483 72.9354 107.547 76.2792 107.335 80.8703C107.129 85.0508 111.985 87.5064 122.542 90.1497C131.477 92.1738 133.684 93.2868 133.659 95.042C133.632 96.984 129.91 98.3162 126.726 98.2367L126.802 92.7842L122.517 91.9049L122.43 98.1786C121.241 98.4242 115.179 97.4842 115.189 96.7746C115.195 96.364 119.126 96.0429 119.157 93.8394C119.182 92.0096 116.463 90.4415 112.759 90.392C108.686 90.3376 105.701 91.8295 105.673 93.8831C105.614 98.1032 115.735 100.181 122.401 100.344L122.358 103.407L126.654 103.464L126.696 100.402C136.254 100.268 144.594 97.1299 144.667 91.8641C144.73 87.4209 140.465 85.1601 132.859 83.3029Z" fill="white"/>
<g style="mix-blend-mode:lighten">
<path d="M18.4261 72L21.3239 54.5455H25.0142L22.6278 68.9574H30.1108L29.5994 72H18.4261ZM35.674 72.2472C34.8445 72.2472 34.1257 72.1023 33.5178 71.8125C32.9155 71.517 32.4723 71.0795 32.1882 70.5C31.9041 69.9205 31.8331 69.2017 31.9751 68.3438C32.1001 67.6165 32.3359 67.0085 32.6825 66.5199C33.0348 66.0256 33.4638 65.6278 33.9695 65.3267C34.4751 65.0256 35.0348 64.7955 35.6484 64.6364C36.2678 64.4773 36.907 64.3693 37.5661 64.3125C38.3274 64.233 38.9467 64.1562 39.424 64.0824C39.907 64.0085 40.2678 63.9034 40.5064 63.767C40.745 63.625 40.8899 63.4148 40.9411 63.1364V63.0852C41.0263 62.5511 40.9268 62.1364 40.6428 61.8409C40.3643 61.5398 39.9183 61.3892 39.3047 61.3892C38.657 61.3892 38.1058 61.5312 37.6513 61.8153C37.2024 62.0994 36.8814 62.4602 36.6882 62.8977L33.3814 62.625C33.6768 61.8295 34.1229 61.142 34.7195 60.5625C35.3217 59.9773 36.0462 59.5284 36.8928 59.2159C37.7393 58.8977 38.6882 58.7386 39.7393 58.7386C40.4666 58.7386 41.1456 58.8239 41.7763 58.9943C42.4126 59.1648 42.9609 59.429 43.4212 59.7869C43.8871 60.1449 44.2223 60.6051 44.4268 61.1676C44.6371 61.7244 44.6797 62.392 44.5547 63.1705L43.0803 72H39.6371L39.9439 70.1847H39.8416C39.5632 70.5938 39.2223 70.9545 38.8189 71.267C38.4155 71.5739 37.9524 71.8153 37.4297 71.9915C36.907 72.1619 36.3217 72.2472 35.674 72.2472ZM37.1314 69.7415C37.6598 69.7415 38.1456 69.6364 38.5888 69.4261C39.0376 69.2102 39.407 68.9205 39.6967 68.5568C39.9922 68.1932 40.1797 67.7812 40.2592 67.321L40.4808 65.9318C40.3672 66.0057 40.2024 66.071 39.9865 66.1278C39.7763 66.1847 39.5462 66.2386 39.2962 66.2898C39.0518 66.3352 38.8047 66.3778 38.5547 66.4176C38.3047 66.4517 38.0803 66.4858 37.8814 66.5199C37.4439 66.5824 37.0518 66.6818 36.7053 66.8182C36.3587 66.9545 36.0774 67.1392 35.8615 67.3722C35.6456 67.5994 35.5121 67.8835 35.4609 68.2244C35.3814 68.7188 35.4979 69.0966 35.8104 69.358C36.1286 69.6136 36.5689 69.7415 37.1314 69.7415ZM55.0419 58.9091L54.5902 61.6364H46.6982L47.1584 58.9091H55.0419ZM49.4595 55.7727H53.0902L51.0618 67.9773C51.005 68.3125 51.0135 68.5739 51.0874 68.7614C51.1612 68.9432 51.2834 69.071 51.4538 69.1449C51.63 69.2187 51.8402 69.2557 52.0845 69.2557C52.255 69.2557 52.4283 69.2415 52.6044 69.2131C52.7805 69.179 52.9141 69.1534 53.005 69.1364L53.1413 71.8381C52.9368 71.9006 52.6612 71.9687 52.3146 72.0426C51.9737 72.1165 51.5703 72.1619 51.1044 72.179C50.218 72.2131 49.468 72.0966 48.8544 71.8295C48.2408 71.5568 47.8004 71.1392 47.5334 70.5767C47.2663 70.0142 47.2095 69.3068 47.3629 68.4545L49.4595 55.7727ZM58.924 72.2472C58.0945 72.2472 57.3757 72.1023 56.7678 71.8125C56.1655 71.517 55.7223 71.0795 55.4382 70.5C55.1541 69.9205 55.0831 69.2017 55.2251 68.3438C55.3501 67.6165 55.5859 67.0085 55.9325 66.5199C56.2848 66.0256 56.7138 65.6278 57.2195 65.3267C57.7251 65.0256 58.2848 64.7955 58.8984 64.6364C59.5178 64.4773 60.157 64.3693 60.8161 64.3125C61.5774 64.233 62.1967 64.1562 62.674 64.0824C63.157 64.0085 63.5178 63.9034 63.7564 63.767C63.995 63.625 64.1399 63.4148 64.1911 63.1364V63.0852C64.2763 62.5511 64.1768 62.1364 63.8928 61.8409C63.6143 61.5398 63.1683 61.3892 62.5547 61.3892C61.907 61.3892 61.3558 61.5312 60.9013 61.8153C60.4524 62.0994 60.1314 62.4602 59.9382 62.8977L56.6314 62.625C56.9268 61.8295 57.3729 61.142 57.9695 60.5625C58.5717 59.9773 59.2962 59.5284 60.1428 59.2159C60.9893 58.8977 61.9382 58.7386 62.9893 58.7386C63.7166 58.7386 64.3956 58.8239 65.0263 58.9943C65.6626 59.1648 66.2109 59.429 66.6712 59.7869C67.1371 60.1449 67.4723 60.6051 67.6768 61.1676C67.8871 61.7244 67.9297 62.392 67.8047 63.1705L66.3303 72H62.8871L63.1939 70.1847H63.0916C62.8132 70.5938 62.4723 70.9545 62.0689 71.267C61.6655 71.5739 61.2024 71.8153 60.6797 71.9915C60.157 72.1619 59.5717 72.2472 58.924 72.2472ZM60.3814 69.7415C60.9098 69.7415 61.3956 69.6364 61.8388 69.4261C62.2876 69.2102 62.657 68.9205 62.9467 68.5568C63.2422 68.1932 63.4297 67.7812 63.5092 67.321L63.7308 65.9318C63.6172 66.0057 63.4524 66.071 63.2365 66.1278C63.0263 66.1847 62.7962 66.2386 62.5462 66.2898C62.3018 66.3352 62.0547 66.3778 61.8047 66.4176C61.5547 66.4517 61.3303 66.4858 61.1314 66.5199C60.6939 66.5824 60.3018 66.6818 59.9553 66.8182C59.6087 66.9545 59.3274 67.1392 59.1115 67.3722C58.8956 67.5994 58.7621 67.8835 58.7109 68.2244C58.6314 68.7188 58.7479 69.0966 59.0604 69.358C59.3786 69.6136 59.8189 69.7415 60.3814 69.7415ZM69.1726 72L71.3544 58.9091H74.8061L74.4311 61.2188H74.576C74.9737 60.4517 75.5277 59.8466 76.2379 59.4034C76.9538 58.9602 77.7578 58.7386 78.6499 58.7386C79.5362 58.7386 80.2578 58.9631 80.8146 59.4119C81.3771 59.8551 81.701 60.4574 81.7862 61.2188H81.9226C82.3089 60.4688 82.8913 59.8693 83.6697 59.4205C84.4482 58.9659 85.3175 58.7386 86.2777 58.7386C87.4879 58.7386 88.4141 59.1278 89.0561 59.9062C89.6982 60.6847 89.8999 61.7812 89.6612 63.196L88.1953 72H84.5646L85.9283 63.9119C86.0362 63.179 85.9283 62.6335 85.6044 62.2756C85.2805 61.9119 84.8288 61.7301 84.2493 61.7301C83.5902 61.7301 83.0419 61.9403 82.6044 62.3608C82.1669 62.7756 81.897 63.3239 81.7947 64.0057L80.4396 72H76.9197L78.3004 63.8352C78.397 63.1875 78.2919 62.6761 77.9851 62.3011C77.6839 61.9205 77.2322 61.7301 76.63 61.7301C76.2322 61.7301 75.8544 61.8324 75.4964 62.0369C75.1442 62.2358 74.8459 62.517 74.6016 62.8807C74.3572 63.2386 74.1982 63.6591 74.1243 64.142L72.7947 72H69.1726Z" fill="white"/>
<path d="M18.4261 72L17.4396 71.8362L17.2464 73H18.4261V72ZM21.3239 54.5455V53.5455H20.4762L20.3374 54.3817L21.3239 54.5455ZM25.0142 54.5455L26.0008 54.7088L26.1934 53.5455H25.0142V54.5455ZM22.6278 68.9574L21.6413 68.794L21.4486 69.9574H22.6278V68.9574ZM30.1108 68.9574L31.097 69.1231L31.2929 67.9574H30.1108V68.9574ZM29.5994 72V73H30.4454L30.5856 72.1657L29.5994 72ZM19.4126 72.1638L22.3104 54.7092L20.3374 54.3817L17.4396 71.8362L19.4126 72.1638ZM21.3239 55.5455H25.0142V53.5455H21.3239V55.5455ZM24.0276 54.3821L21.6413 68.794L23.6144 69.1207L26.0008 54.7088L24.0276 54.3821ZM22.6278 69.9574H30.1108V67.9574H22.6278V69.9574ZM29.1246 68.7916L28.6133 71.8343L30.5856 72.1657L31.097 69.1231L29.1246 68.7916ZM29.5994 71H18.4261V73H29.5994V71ZM33.5178 71.8125L33.0773 72.7103L33.0875 72.7152L33.5178 71.8125ZM32.1882 70.5L31.2903 70.9402L32.1882 70.5ZM31.9751 68.3438L30.9896 68.1744L30.9886 68.1804L31.9751 68.3438ZM32.6825 66.5199L31.8682 65.9395L31.8669 65.9413L32.6825 66.5199ZM33.9695 65.3267L33.4578 64.4675L33.4578 64.4675L33.9695 65.3267ZM35.6484 64.6364L35.3996 63.6678L35.3975 63.6684L35.6484 64.6364ZM37.5661 64.3125L37.6519 65.3088L37.661 65.308L37.67 65.3071L37.5661 64.3125ZM39.424 64.0824L39.2728 63.0939L39.2711 63.0942L39.424 64.0824ZM40.5064 63.767L41.0025 64.6353L41.0102 64.6309L41.0179 64.6263L40.5064 63.767ZM40.9411 63.1364L41.9246 63.317L41.9411 63.2274V63.1364H40.9411ZM40.9411 63.0852L39.9535 62.9276L39.9411 63.0059V63.0852H40.9411ZM40.6428 61.8409L39.9085 62.5198L39.9151 62.527L39.9219 62.534L40.6428 61.8409ZM37.6513 61.8153L37.1213 60.9673L37.1165 60.9704L37.6513 61.8153ZM36.6882 62.8977L36.606 63.8943L37.3155 63.9529L37.603 63.3017L36.6882 62.8977ZM33.3814 62.625L32.444 62.2768L31.9847 63.5132L33.2992 63.6216L33.3814 62.625ZM34.7195 60.5625L35.4162 61.2798L35.4163 61.2797L34.7195 60.5625ZM36.8928 59.2159L37.2391 60.1541L37.2446 60.152L36.8928 59.2159ZM41.7763 58.9943L41.5154 59.9597L41.5175 59.9603L41.7763 58.9943ZM43.4212 59.7869L42.8072 60.5763L42.8119 60.5799L43.4212 59.7869ZM44.4268 61.1676L43.487 61.5094L43.4913 61.5208L44.4268 61.1676ZM44.5547 63.1705L45.541 63.3352L45.542 63.329L44.5547 63.1705ZM43.0803 72V73H43.9271L44.0666 72.1647L43.0803 72ZM39.6371 72L38.6511 71.8333L38.4539 73H39.6371V72ZM39.9439 70.1847L40.9299 70.3513L41.1271 69.1847H39.9439V70.1847ZM39.8416 70.1847V69.1847H39.3126L39.0149 69.622L39.8416 70.1847ZM38.8189 71.267L39.4243 72.063L39.4313 72.0576L38.8189 71.267ZM37.4297 71.9915L37.7397 72.9423L37.749 72.9391L37.4297 71.9915ZM38.5888 69.4261L39.0174 70.3297L39.0223 70.3273L38.5888 69.4261ZM39.6967 68.5568L38.9206 67.9262L38.9147 67.9336L39.6967 68.5568ZM40.2592 67.321L41.2447 67.4914L41.2467 67.4785L40.2592 67.321ZM40.4808 65.9318L41.4683 66.0893L41.8229 63.8668L39.9358 65.0934L40.4808 65.9318ZM39.9865 66.1278L39.732 65.1607L39.7256 65.1625L39.9865 66.1278ZM39.2962 66.2898L39.4791 67.2729L39.4878 67.2713L39.4966 67.2695L39.2962 66.2898ZM38.5547 66.4176L38.6898 67.4084L38.7008 67.4069L38.7118 67.4052L38.5547 66.4176ZM37.8814 66.5199L38.0228 67.5098L38.0366 67.5079L38.0504 67.5055L37.8814 66.5199ZM36.7053 66.8182L37.0714 67.7487L37.0714 67.7487L36.7053 66.8182ZM35.8615 67.3722L36.5866 68.061L36.5949 68.0519L35.8615 67.3722ZM35.4609 68.2244L36.4483 68.3833L36.4499 68.3728L35.4609 68.2244ZM35.8104 69.358L35.1688 70.125L35.1763 70.1313L35.184 70.1375L35.8104 69.358ZM35.674 71.2472C34.9596 71.2472 34.3941 71.1224 33.948 70.9098L33.0875 72.7152C33.8573 73.0821 34.7293 73.2472 35.674 73.2472V71.2472ZM33.9582 70.9147C33.5465 70.7127 33.2686 70.4321 33.0861 70.0598L31.2903 70.9402C31.676 71.727 32.2845 72.3213 33.0773 72.7103L33.9582 70.9147ZM33.0861 70.0598C32.9207 69.7224 32.8421 69.2298 32.9617 68.5071L30.9886 68.1804C30.8241 69.1736 30.8875 70.1185 31.2903 70.9402L33.0861 70.0598ZM32.9607 68.5131C33.0661 67.8998 33.2558 67.4402 33.4982 67.0984L31.8669 65.9413C31.4161 66.5769 31.1342 67.3331 30.9896 68.1744L32.9607 68.5131ZM33.4969 67.1002C33.7713 66.7152 34.0983 66.4138 34.4811 66.1859L33.4578 64.4675C32.8292 64.8418 32.2983 65.3359 31.8682 65.9395L33.4969 67.1002ZM34.4811 66.1859C34.8995 65.9368 35.3703 65.7415 35.8994 65.6044L35.3975 63.6684C34.6993 63.8494 34.0508 64.1144 33.4578 64.4675L34.4811 66.1859ZM35.8972 65.6049C36.4613 65.46 37.0459 65.361 37.6519 65.3088L37.4802 63.3162C36.768 63.3776 36.0742 63.4945 35.3996 63.6678L35.8972 65.6049ZM37.67 65.3071C38.4395 65.2267 39.0768 65.148 39.5769 65.0706L39.2711 63.0942C38.8166 63.1645 38.2154 63.2392 37.4621 63.3179L37.67 65.3071ZM39.5752 65.0709C40.1002 64.9906 40.6047 64.8626 41.0025 64.6353L40.0103 62.8988C39.9308 62.9442 39.7138 63.0264 39.2728 63.0939L39.5752 65.0709ZM41.0179 64.6263C41.5098 64.3335 41.8225 63.8729 41.9246 63.317L39.9575 62.9557C39.9559 62.9646 39.9549 62.9653 39.957 62.9601C39.9592 62.9546 39.9636 62.9457 39.9706 62.9354C39.9778 62.9251 39.9852 62.9169 39.9913 62.9113C39.9972 62.9058 39.9994 62.9051 39.9949 62.9078L41.0179 64.6263ZM41.9411 63.1364V63.0852H39.9411V63.1364H41.9411ZM41.9286 63.2428C42.046 62.5066 41.9308 61.7377 41.3636 61.1478L39.9219 62.534C39.9356 62.5482 39.9479 62.565 39.958 62.6067C39.97 62.6568 39.9808 62.7571 39.9535 62.9276L41.9286 63.2428ZM41.377 61.1621C40.8323 60.5728 40.0586 60.3892 39.3047 60.3892V62.3892C39.7781 62.3892 39.8964 62.5067 39.9085 62.5198L41.377 61.1621ZM39.3047 60.3892C38.5088 60.3892 37.7651 60.565 37.1213 60.9673L38.1813 62.6633C38.4466 62.4975 38.8051 62.3892 39.3047 62.3892V60.3892ZM37.1165 60.9704C36.5193 61.3483 36.0555 61.855 35.7734 62.4938L37.603 63.3017C37.7073 63.0654 37.8855 62.8505 38.1861 62.6603L37.1165 60.9704ZM36.7704 61.9011L33.4636 61.6284L33.2992 63.6216L36.606 63.8943L36.7704 61.9011ZM34.3188 62.9732C34.5636 62.3142 34.9285 61.7536 35.4162 61.2798L34.0227 59.8452C33.3172 60.5305 32.7901 61.3449 32.444 62.2768L34.3188 62.9732ZM35.4163 61.2797C35.9112 60.7989 36.5136 60.4218 37.239 60.154L36.5465 58.2778C35.5788 58.635 34.7323 59.1557 34.0226 59.8453L35.4163 61.2797ZM37.2446 60.152C37.962 59.8823 38.7892 59.7386 39.7393 59.7386V57.7386C38.5872 57.7386 37.5167 57.9131 36.5409 58.2798L37.2446 60.152ZM39.7393 59.7386C40.3883 59.7386 40.9787 59.8146 41.5154 59.9597L42.0372 58.029C41.3125 57.8331 40.5449 57.7386 39.7393 57.7386V59.7386ZM41.5175 59.9603C42.0416 60.1006 42.4653 60.3103 42.8072 60.5763L44.0351 58.9976C43.4566 58.5476 42.7837 58.2289 42.035 58.0284L41.5175 59.9603ZM42.8119 60.5799C43.124 60.8197 43.3462 61.1221 43.4871 61.5094L45.3666 60.8259C45.0984 60.0881 44.6501 59.4701 44.0304 58.9939L42.8119 60.5799ZM43.4913 61.5208C43.6231 61.8699 43.6734 62.3516 43.5673 63.0119L45.542 63.329C45.686 62.4325 45.6511 61.579 45.3624 60.8144L43.4913 61.5208ZM43.5683 63.0057L42.0939 71.8353L44.0666 72.1647L45.541 63.3352L43.5683 63.0057ZM43.0803 71H39.6371V73H43.0803V71ZM40.6231 72.1667L40.9299 70.3513L38.9579 70.018L38.6511 71.8333L40.6231 72.1667ZM39.9439 69.1847H39.8416V71.1847H39.9439V69.1847ZM39.0149 69.622C38.7974 69.9417 38.5296 70.2262 38.2065 70.4765L39.4313 72.0576C39.915 71.6829 40.3291 71.2458 40.6683 70.7473L39.0149 69.622ZM38.2135 70.4711C37.9039 70.7066 37.5392 70.8993 37.1104 71.0438L37.749 72.9391C38.3656 72.7314 38.9271 72.4411 39.4243 72.063L38.2135 70.4711ZM37.1197 71.0407C36.713 71.1733 36.2347 71.2472 35.674 71.2472V73.2472C36.4088 73.2472 37.1009 73.1505 37.7397 72.9422L37.1197 71.0407ZM37.1314 70.7415C37.7964 70.7415 38.4301 70.6082 39.0174 70.3296L38.1602 68.5226C37.8611 68.6645 37.5232 68.7415 37.1314 68.7415V70.7415ZM39.0223 70.3273C39.5969 70.0509 40.0886 69.6696 40.4788 69.18L38.9147 67.9336C38.7253 68.1713 38.4784 68.3696 38.1553 68.525L39.0223 70.3273ZM40.4728 69.1874C40.876 68.6913 41.1358 68.1209 41.2446 67.4913L39.2738 67.1507C39.2236 67.4416 39.1084 67.6951 38.9206 67.9262L40.4728 69.1874ZM41.2467 67.4785L41.4683 66.0893L39.4933 65.7743L39.2717 67.1635L41.2467 67.4785ZM39.9358 65.0934C39.9486 65.0851 39.9418 65.0914 39.9034 65.1066C39.8664 65.1213 39.8106 65.1401 39.732 65.1608L40.241 67.0949C40.5024 67.0261 40.7837 66.9276 41.0258 66.7703L39.9358 65.0934ZM39.7256 65.1625C39.5384 65.2131 39.3288 65.2624 39.0958 65.3101L39.4966 67.2695C39.7635 67.2149 40.0141 67.1563 40.2474 67.0932L39.7256 65.1625ZM39.1133 65.3066C38.8777 65.3505 38.6391 65.3916 38.3976 65.43L38.7118 67.4052C38.9703 67.3641 39.226 67.32 39.4791 67.2729L39.1133 65.3066ZM38.4196 65.4268C38.1609 65.4621 37.9249 65.4978 37.7124 65.5343L38.0504 67.5055C38.2356 67.4738 38.4485 67.4414 38.6898 67.4084L38.4196 65.4268ZM37.74 65.5299C37.2393 65.6015 36.77 65.7181 36.3391 65.8876L37.0714 67.7487C37.3337 67.6455 37.6484 67.5633 38.0228 67.5098L37.74 65.5299ZM36.3391 65.8876C35.8768 66.0695 35.4622 66.3319 35.1281 66.6924L36.5949 68.0519C36.6926 67.9465 36.8405 67.8396 37.0714 67.7487L36.3391 65.8876ZM35.1365 66.6834C34.7652 67.0743 34.5504 67.5534 34.472 68.0761L36.4499 68.3728C36.4737 68.2136 36.526 68.1246 36.5865 68.0609L35.1365 66.6834ZM34.4736 68.0656C34.353 68.8151 34.5209 69.5831 35.1688 70.125L36.4519 68.5909C36.4421 68.5827 36.441 68.5798 36.4431 68.5828C36.4453 68.5861 36.4454 68.5878 36.4443 68.584C36.4417 68.5755 36.4265 68.5181 36.4482 68.3833L34.4736 68.0656ZM35.184 70.1375C35.7364 70.5814 36.4263 70.7415 37.1314 70.7415V68.7415C36.7115 68.7415 36.5207 68.6459 36.4368 68.5784L35.184 70.1375ZM55.0419 58.9091L56.0285 59.0725L56.2212 57.9091H55.0419V58.9091ZM54.5902 61.6364V62.6364H55.4382L55.5768 61.7998L54.5902 61.6364ZM46.6982 61.6364L45.7121 61.47L45.5153 62.6364H46.6982V61.6364ZM47.1584 58.9091V57.9091H46.313L46.1723 58.7427L47.1584 58.9091ZM49.4595 55.7727V54.7727H48.6113L48.4729 55.6096L49.4595 55.7727ZM53.0902 55.7727L54.0767 55.9367L54.2701 54.7727H53.0902V55.7727ZM51.0618 67.9773L52.0477 68.1444L52.0483 68.1412L51.0618 67.9773ZM51.0874 68.7614L50.1569 69.1279L50.1609 69.1377L51.0874 68.7614ZM51.4538 69.1449L51.0562 70.0625L51.0671 70.0671L51.4538 69.1449ZM52.6044 69.2131L52.7636 70.2003L52.7791 70.1978L52.7944 70.1948L52.6044 69.2131ZM53.005 69.1364L54.0037 69.086L53.946 67.9425L52.8207 68.1535L53.005 69.1364ZM53.1413 71.8381L53.4336 72.7944L54.1794 72.5665L54.1401 71.7877L53.1413 71.8381ZM52.3146 72.0426L52.1062 71.0646L52.1029 71.0653L52.3146 72.0426ZM51.1044 72.179L51.0678 71.1796L51.066 71.1797L51.1044 72.179ZM48.8544 71.8295L48.4483 72.7434L48.4554 72.7465L48.8544 71.8295ZM47.5334 70.5767L48.4367 70.1478L48.4367 70.1478L47.5334 70.5767ZM47.3629 68.4545L48.3471 68.6317L48.3484 68.6247L48.3495 68.6177L47.3629 68.4545ZM54.0553 58.7457L53.6036 61.473L55.5768 61.7998L56.0285 59.0725L54.0553 58.7457ZM54.5902 60.6364H46.6982V62.6364H54.5902V60.6364ZM47.6842 61.8028L48.1444 59.0755L46.1723 58.7427L45.7121 61.47L47.6842 61.8028ZM47.1584 59.9091H55.0419V57.9091H47.1584V59.9091ZM49.4595 56.7727H53.0902V54.7727H49.4595V56.7727ZM52.1037 55.6088L50.0753 67.8133L52.0483 68.1412L54.0767 55.9367L52.1037 55.6088ZM50.0759 67.8102C50.0071 68.2157 49.9849 68.6911 50.1569 69.1279L52.0178 68.3948C52.0332 68.434 52.0266 68.4406 52.025 68.3921C52.0235 68.3447 52.0274 68.2645 52.0477 68.1444L50.0759 67.8102ZM50.1609 69.1377C50.3272 69.5471 50.6308 69.8781 51.0562 70.0624L51.8514 68.2273C51.8824 68.2408 51.9216 68.2653 51.9574 68.3028C51.9924 68.3394 52.0085 68.372 52.0138 68.385L50.1609 69.1377ZM51.0671 70.0671C51.3947 70.2045 51.743 70.2557 52.0845 70.2557V68.2557C51.9374 68.2557 51.8652 68.233 51.8406 68.2227L51.0671 70.0671ZM52.0845 70.2557C52.3107 70.2557 52.5373 70.2368 52.7636 70.2003L52.4452 68.2258C52.3192 68.2461 52.1992 68.2557 52.0845 68.2557V70.2557ZM52.7944 70.1948C52.9701 70.1609 53.1013 70.1357 53.1893 70.1192L52.8207 68.1535C52.7268 68.1711 52.591 68.1971 52.4144 68.2313L52.7944 70.1948ZM52.0062 69.1868L52.1426 71.8885L54.1401 71.7877L54.0037 69.086L52.0062 69.1868ZM52.8491 70.8817C52.6842 70.9321 52.4403 70.9934 52.1062 71.0646L52.5231 73.0207C52.8822 72.9441 53.1894 72.869 53.4336 72.7944L52.8491 70.8817ZM52.1029 71.0653C51.8351 71.1233 51.4931 71.1641 51.0678 71.1796L51.141 73.1783C51.6475 73.1598 52.1123 73.1096 52.5264 73.0199L52.1029 71.0653ZM51.066 71.1797C50.2831 71.2098 49.692 71.1035 49.2534 70.9126L48.4554 72.7465C49.244 73.0897 50.153 73.2163 51.1428 73.1782L51.066 71.1797ZM49.2605 70.9157C48.8468 70.7318 48.593 70.4769 48.4367 70.1478L46.63 71.0056C47.0079 71.8015 47.6348 72.3818 48.4483 72.7434L49.2605 70.9157ZM48.4367 70.1478C48.2881 69.8348 48.2166 69.3566 48.3471 68.6317L46.3787 68.2774C46.2024 69.257 46.2445 70.1936 46.63 71.0056L48.4367 70.1478ZM48.3495 68.6177L50.4461 55.9358L48.4729 55.6096L46.3763 68.2914L48.3495 68.6177ZM56.7678 71.8125L56.3273 72.7103L56.3375 72.7152L56.7678 71.8125ZM55.4382 70.5L54.5403 70.9402L55.4382 70.5ZM55.2251 68.3438L54.2396 68.1744L54.2386 68.1804L55.2251 68.3438ZM55.9325 66.5199L55.1182 65.9395L55.1169 65.9413L55.9325 66.5199ZM57.2195 65.3267L56.7078 64.4675L56.7078 64.4675L57.2195 65.3267ZM58.8984 64.6364L58.6496 63.6678L58.6475 63.6684L58.8984 64.6364ZM60.8161 64.3125L60.9019 65.3088L60.911 65.308L60.92 65.3071L60.8161 64.3125ZM62.674 64.0824L62.5228 63.0939L62.5211 63.0942L62.674 64.0824ZM63.7564 63.767L64.2525 64.6353L64.2602 64.6309L64.2679 64.6263L63.7564 63.767ZM64.1911 63.1364L65.1746 63.317L65.1911 63.2274V63.1364H64.1911ZM64.1911 63.0852L63.2035 62.9276L63.1911 63.0059V63.0852H64.1911ZM63.8928 61.8409L63.1585 62.5198L63.1651 62.527L63.1719 62.534L63.8928 61.8409ZM60.9013 61.8153L60.3713 60.9673L60.3665 60.9704L60.9013 61.8153ZM59.9382 62.8977L59.856 63.8943L60.5655 63.9529L60.853 63.3017L59.9382 62.8977ZM56.6314 62.625L55.694 62.2768L55.2347 63.5132L56.5492 63.6216L56.6314 62.625ZM57.9695 60.5625L58.6662 61.2798L58.6663 61.2797L57.9695 60.5625ZM60.1428 59.2159L60.4891 60.1541L60.4946 60.152L60.1428 59.2159ZM65.0263 58.9943L64.7654 59.9597L64.7675 59.9603L65.0263 58.9943ZM66.6712 59.7869L66.0572 60.5763L66.0619 60.5799L66.6712 59.7869ZM67.6768 61.1676L66.737 61.5094L66.7413 61.5208L67.6768 61.1676ZM67.8047 63.1705L68.791 63.3352L68.792 63.329L67.8047 63.1705ZM66.3303 72V73H67.1771L67.3166 72.1647L66.3303 72ZM62.8871 72L61.9011 71.8333L61.7039 73H62.8871V72ZM63.1939 70.1847L64.1799 70.3513L64.3771 69.1847H63.1939V70.1847ZM63.0916 70.1847V69.1847H62.5626L62.2649 69.622L63.0916 70.1847ZM62.0689 71.267L62.6743 72.063L62.6813 72.0576L62.0689 71.267ZM60.6797 71.9915L60.9897 72.9423L60.999 72.9391L60.6797 71.9915ZM61.8388 69.4261L62.2674 70.3297L62.2723 70.3273L61.8388 69.4261ZM62.9467 68.5568L62.1706 67.9262L62.1647 67.9336L62.9467 68.5568ZM63.5092 67.321L64.4947 67.4914L64.4967 67.4785L63.5092 67.321ZM63.7308 65.9318L64.7183 66.0893L65.0729 63.8668L63.1858 65.0934L63.7308 65.9318ZM63.2365 66.1278L62.982 65.1607L62.9756 65.1625L63.2365 66.1278ZM62.5462 66.2898L62.7291 67.2729L62.7378 67.2713L62.7466 67.2695L62.5462 66.2898ZM61.8047 66.4176L61.9398 67.4084L61.9508 67.4069L61.9618 67.4052L61.8047 66.4176ZM61.1314 66.5199L61.2728 67.5098L61.2866 67.5079L61.3004 67.5055L61.1314 66.5199ZM59.9553 66.8182L60.3214 67.7487L60.3214 67.7487L59.9553 66.8182ZM59.1115 67.3722L59.8366 68.061L59.8449 68.0519L59.1115 67.3722ZM58.7109 68.2244L59.6983 68.3833L59.6999 68.3728L58.7109 68.2244ZM59.0604 69.358L58.4188 70.125L58.4263 70.1313L58.434 70.1375L59.0604 69.358ZM58.924 71.2472C58.2096 71.2472 57.6441 71.1224 57.198 70.9098L56.3375 72.7152C57.1073 73.0821 57.9793 73.2472 58.924 73.2472V71.2472ZM57.2082 70.9147C56.7965 70.7127 56.5186 70.4321 56.3361 70.0598L54.5403 70.9402C54.926 71.727 55.5345 72.3213 56.3273 72.7103L57.2082 70.9147ZM56.3361 70.0598C56.1707 69.7224 56.0921 69.2298 56.2117 68.5071L54.2386 68.1804C54.0741 69.1736 54.1375 70.1185 54.5403 70.9402L56.3361 70.0598ZM56.2107 68.5131C56.3161 67.8998 56.5058 67.4402 56.7482 67.0984L55.1169 65.9413C54.6661 66.5769 54.3842 67.3331 54.2396 68.1744L56.2107 68.5131ZM56.7469 67.1002C57.0213 66.7152 57.3483 66.4138 57.7311 66.1859L56.7078 64.4675C56.0792 64.8418 55.5483 65.3359 55.1182 65.9395L56.7469 67.1002ZM57.7311 66.1859C58.1495 65.9368 58.6203 65.7415 59.1494 65.6044L58.6475 63.6684C57.9493 63.8494 57.3008 64.1144 56.7078 64.4675L57.7311 66.1859ZM59.1472 65.6049C59.7113 65.46 60.2959 65.361 60.9019 65.3088L60.7302 63.3162C60.018 63.3776 59.3242 63.4945 58.6496 63.6678L59.1472 65.6049ZM60.92 65.3071C61.6895 65.2267 62.3268 65.148 62.8269 65.0706L62.5211 63.0942C62.0666 63.1645 61.4654 63.2392 60.7121 63.3179L60.92 65.3071ZM62.8252 65.0709C63.3502 64.9906 63.8547 64.8626 64.2525 64.6353L63.2603 62.8988C63.1808 62.9442 62.9638 63.0264 62.5228 63.0939L62.8252 65.0709ZM64.2679 64.6263C64.7598 64.3335 65.0725 63.8729 65.1746 63.317L63.2075 62.9557C63.2059 62.9646 63.2049 62.9653 63.207 62.9601C63.2092 62.9546 63.2136 62.9457 63.2206 62.9354C63.2278 62.9251 63.2352 62.9169 63.2413 62.9113C63.2472 62.9058 63.2494 62.9051 63.2449 62.9078L64.2679 64.6263ZM65.1911 63.1364V63.0852H63.1911V63.1364H65.1911ZM65.1786 63.2428C65.296 62.5066 65.1808 61.7377 64.6136 61.1478L63.1719 62.534C63.1856 62.5482 63.1979 62.565 63.208 62.6067C63.22 62.6568 63.2308 62.7571 63.2035 62.9276L65.1786 63.2428ZM64.627 61.1621C64.0823 60.5728 63.3086 60.3892 62.5547 60.3892V62.3892C63.0281 62.3892 63.1464 62.5067 63.1585 62.5198L64.627 61.1621ZM62.5547 60.3892C61.7588 60.3892 61.0151 60.565 60.3713 60.9673L61.4313 62.6633C61.6966 62.4975 62.0551 62.3892 62.5547 62.3892V60.3892ZM60.3665 60.9704C59.7693 61.3483 59.3055 61.855 59.0234 62.4938L60.853 63.3017C60.9573 63.0654 61.1355 62.8505 61.4361 62.6603L60.3665 60.9704ZM60.0204 61.9011L56.7136 61.6284L56.5492 63.6216L59.856 63.8943L60.0204 61.9011ZM57.5688 62.9732C57.8136 62.3142 58.1785 61.7536 58.6662 61.2798L57.2727 59.8452C56.5672 60.5305 56.0401 61.3449 55.694 62.2768L57.5688 62.9732ZM58.6663 61.2797C59.1612 60.7989 59.7636 60.4218 60.489 60.154L59.7965 58.2778C58.8288 58.635 57.9823 59.1557 57.2726 59.8453L58.6663 61.2797ZM60.4946 60.152C61.212 59.8823 62.0392 59.7386 62.9893 59.7386V57.7386C61.8372 57.7386 60.7667 57.9131 59.7909 58.2798L60.4946 60.152ZM62.9893 59.7386C63.6383 59.7386 64.2287 59.8146 64.7654 59.9597L65.2872 58.029C64.5625 57.8331 63.7949 57.7386 62.9893 57.7386V59.7386ZM64.7675 59.9603C65.2916 60.1006 65.7153 60.3103 66.0572 60.5763L67.2851 58.9976C66.7066 58.5476 66.0337 58.2289 65.285 58.0284L64.7675 59.9603ZM66.0619 60.5799C66.374 60.8197 66.5962 61.1221 66.7371 61.5094L68.6166 60.8259C68.3484 60.0881 67.9001 59.4701 67.2804 58.9939L66.0619 60.5799ZM66.7413 61.5208C66.8731 61.8699 66.9234 62.3516 66.8173 63.0119L68.792 63.329C68.936 62.4325 68.9011 61.579 68.6124 60.8144L66.7413 61.5208ZM66.8183 63.0057L65.3439 71.8353L67.3166 72.1647L68.791 63.3352L66.8183 63.0057ZM66.3303 71H62.8871V73H66.3303V71ZM63.8731 72.1667L64.1799 70.3513L62.2079 70.018L61.9011 71.8333L63.8731 72.1667ZM63.1939 69.1847H63.0916V71.1847H63.1939V69.1847ZM62.2649 69.622C62.0474 69.9417 61.7796 70.2262 61.4565 70.4765L62.6813 72.0576C63.165 71.6829 63.5791 71.2458 63.9183 70.7473L62.2649 69.622ZM61.4635 70.4711C61.1539 70.7066 60.7892 70.8993 60.3604 71.0438L60.999 72.9391C61.6156 72.7314 62.1771 72.4411 62.6743 72.063L61.4635 70.4711ZM60.3697 71.0407C59.963 71.1733 59.4847 71.2472 58.924 71.2472V73.2472C59.6588 73.2472 60.3509 73.1505 60.9897 72.9422L60.3697 71.0407ZM60.3814 70.7415C61.0464 70.7415 61.6801 70.6082 62.2674 70.3296L61.4102 68.5226C61.1111 68.6645 60.7732 68.7415 60.3814 68.7415V70.7415ZM62.2723 70.3273C62.8469 70.0509 63.3386 69.6696 63.7288 69.18L62.1647 67.9336C61.9753 68.1713 61.7284 68.3696 61.4053 68.525L62.2723 70.3273ZM63.7228 69.1874C64.126 68.6913 64.3858 68.1209 64.4946 67.4913L62.5238 67.1507C62.4736 67.4416 62.3584 67.6951 62.1706 67.9262L63.7228 69.1874ZM64.4967 67.4785L64.7183 66.0893L62.7433 65.7743L62.5217 67.1635L64.4967 67.4785ZM63.1858 65.0934C63.1986 65.0851 63.1918 65.0914 63.1534 65.1066C63.1164 65.1213 63.0606 65.1401 62.982 65.1608L63.491 67.0949C63.7524 67.0261 64.0337 66.9276 64.2758 66.7703L63.1858 65.0934ZM62.9756 65.1625C62.7884 65.2131 62.5788 65.2624 62.3458 65.3101L62.7466 67.2695C63.0135 67.2149 63.2641 67.1563 63.4974 67.0932L62.9756 65.1625ZM62.3633 65.3066C62.1277 65.3505 61.8891 65.3916 61.6476 65.43L61.9618 67.4052C62.2203 67.3641 62.476 67.32 62.7291 67.2729L62.3633 65.3066ZM61.6696 65.4268C61.4109 65.4621 61.1749 65.4978 60.9624 65.5343L61.3004 67.5055C61.4856 67.4738 61.6985 67.4414 61.9398 67.4084L61.6696 65.4268ZM60.99 65.5299C60.4893 65.6015 60.02 65.7181 59.5891 65.8876L60.3214 67.7487C60.5837 67.6455 60.8984 67.5633 61.2728 67.5098L60.99 65.5299ZM59.5891 65.8876C59.1268 66.0695 58.7122 66.3319 58.3781 66.6924L59.8449 68.0519C59.9426 67.9465 60.0905 67.8396 60.3214 67.7487L59.5891 65.8876ZM58.3865 66.6834C58.0152 67.0743 57.8004 67.5534 57.722 68.0761L59.6999 68.3728C59.7237 68.2136 59.776 68.1246 59.8365 68.0609L58.3865 66.6834ZM57.7236 68.0656C57.603 68.8151 57.7709 69.5831 58.4188 70.125L59.7019 68.5909C59.6921 68.5827 59.691 68.5798 59.6931 68.5828C59.6953 68.5861 59.6954 68.5878 59.6943 68.584C59.6917 68.5755 59.6765 68.5181 59.6982 68.3833L57.7236 68.0656ZM58.434 70.1375C58.9864 70.5814 59.6763 70.7415 60.3814 70.7415V68.7415C59.9615 68.7415 59.7707 68.6459 59.6868 68.5784L58.434 70.1375ZM69.1726 72L68.1862 71.8356L67.9921 73H69.1726V72ZM71.3544 58.9091V57.9091H70.5073L70.368 58.7447L71.3544 58.9091ZM74.8061 58.9091L75.7932 59.0694L75.9816 57.9091H74.8061V58.9091ZM74.4311 61.2188L73.444 61.0585L73.2557 62.2188H74.4311V61.2188ZM74.576 61.2188V62.2188H75.1839L75.4637 61.6791L74.576 61.2188ZM76.2379 59.4034L75.7116 58.5531L75.7085 58.555L76.2379 59.4034ZM80.8146 59.4119L80.187 60.1905L80.1958 60.1974L80.8146 59.4119ZM81.7862 61.2188L80.7924 61.33L80.8919 62.2188H81.7862V61.2188ZM81.9226 61.2188V62.2188H82.5323L82.8116 61.6767L81.9226 61.2188ZM83.6697 59.4205L84.1693 60.2868L84.174 60.284L83.6697 59.4205ZM89.0561 59.9062L88.2847 60.5425L88.2847 60.5425L89.0561 59.9062ZM89.6612 63.196L88.6751 63.0297L88.6748 63.0318L89.6612 63.196ZM88.1953 72V73H89.0426L89.1817 72.1642L88.1953 72ZM84.5646 72L83.5785 71.8337L83.3819 73H84.5646V72ZM85.9283 63.9119L86.9144 64.0782L86.9161 64.0679L86.9176 64.0576L85.9283 63.9119ZM85.6044 62.2756L84.8576 62.9407L84.8629 62.9465L85.6044 62.2756ZM82.6044 62.3608L83.2924 63.0865L83.2973 63.0818L82.6044 62.3608ZM81.7947 64.0057L82.7807 64.1728L82.7823 64.1634L82.7837 64.154L81.7947 64.0057ZM80.4396 72V73H81.2844L81.4256 72.1671L80.4396 72ZM76.9197 72L75.9337 71.8333L75.7364 73H76.9197V72ZM78.3004 63.8352L79.2864 64.002L79.2881 63.9924L79.2895 63.9827L78.3004 63.8352ZM77.9851 62.3011L77.2008 62.9215L77.2059 62.928L77.2111 62.9344L77.9851 62.3011ZM75.4964 62.0369L75.9881 62.9078L75.9926 62.9052L75.4964 62.0369ZM74.6016 62.8807L75.4275 63.4444L75.4316 63.4384L74.6016 62.8807ZM74.1243 64.142L75.1103 64.3089L75.1116 64.3011L75.1128 64.2932L74.1243 64.142ZM72.7947 72V73H73.6398L73.7807 72.1668L72.7947 72ZM70.159 72.1644L72.3408 59.0735L70.368 58.7447L68.1862 71.8356L70.159 72.1644ZM71.3544 59.9091H74.8061V57.9091H71.3544V59.9091ZM73.819 58.7488L73.444 61.0585L75.4182 61.379L75.7932 59.0694L73.819 58.7488ZM74.4311 62.2188H74.576V60.2188H74.4311V62.2188ZM75.4637 61.6791C75.7817 61.0658 76.2142 60.5969 76.7673 60.2518L75.7085 58.555C74.8412 59.0962 74.1657 59.8376 73.6882 60.7584L75.4637 61.6791ZM76.7643 60.2537C77.3125 59.9143 77.9322 59.7386 78.6499 59.7386V57.7386C77.5834 57.7386 76.5951 58.0062 75.7116 58.5531L76.7643 60.2537ZM78.6499 59.7386C79.364 59.7386 79.8473 59.9166 80.187 60.1905L81.4422 58.6334C80.6684 58.0096 79.7084 57.7386 78.6499 57.7386V59.7386ZM80.1958 60.1974C80.5324 60.4626 80.7347 60.8139 80.7924 61.33L82.78 61.1075C82.6673 60.1009 82.2219 59.2476 81.4335 58.6264L80.1958 60.1974ZM81.7862 62.2188H81.9226V60.2188H81.7862V62.2188ZM82.8116 61.6767C83.1042 61.1086 83.5459 60.6462 84.1693 60.2867L83.1702 58.5542C82.2368 59.0924 81.5137 59.8289 81.0336 60.7608L82.8116 61.6767ZM84.174 60.284C84.7894 59.9247 85.4827 59.7386 86.2777 59.7386V57.7386C85.1523 57.7386 84.107 58.0071 83.1655 58.5569L84.174 60.284ZM86.2777 59.7386C87.2552 59.7386 87.8708 60.0408 88.2847 60.5425L89.8276 59.27C88.9573 58.2149 87.7207 57.7386 86.2777 57.7386V59.7386ZM88.2847 60.5425C88.6746 61.0153 88.8866 61.7763 88.6752 63.0297L90.6473 63.3623C90.9132 61.7862 90.7217 60.354 89.8276 59.27L88.2847 60.5425ZM88.6748 63.0318L87.2089 71.8358L89.1817 72.1642L90.6476 63.3603L88.6748 63.0318ZM88.1953 71H84.5646V73H88.1953V71ZM85.5507 72.1663L86.9144 64.0782L84.9422 63.7457L83.5785 71.8337L85.5507 72.1663ZM86.9176 64.0576C87.0456 63.1888 86.9579 62.281 86.3459 61.6047L84.8629 62.9465C84.8986 62.986 85.0269 63.1692 84.9389 63.7662L86.9176 64.0576ZM86.3512 61.6105C85.8014 60.9932 85.0548 60.7301 84.2493 60.7301V62.7301C84.6029 62.7301 84.7597 62.8307 84.8576 62.9407L86.3512 61.6105ZM84.2493 60.7301C83.3563 60.7301 82.5521 61.0241 81.9115 61.6398L83.2973 63.0818C83.5317 62.8566 83.8241 62.7301 84.2493 62.7301V60.7301ZM81.9164 61.6351C81.2942 62.225 80.9362 62.9881 80.8058 63.8573L82.7837 64.154C82.8578 63.6596 83.0396 63.3262 83.2924 63.0865L81.9164 61.6351ZM80.8088 63.8386L79.4537 71.8329L81.4256 72.1671L82.7807 64.1728L80.8088 63.8386ZM80.4396 71H76.9197V73H80.4396V71ZM77.9057 72.1667L79.2864 64.002L77.3144 63.6685L75.9337 71.8333L77.9057 72.1667ZM79.2895 63.9827C79.4124 63.1585 79.3009 62.3302 78.759 61.6679L77.2111 62.9344C77.2829 63.0221 77.3816 63.2165 77.3114 63.6877L79.2895 63.9827ZM78.7694 61.6807C78.2334 61.0032 77.4569 60.7301 76.63 60.7301V62.7301C77.0076 62.7301 77.1345 62.8377 77.2008 62.9215L78.7694 61.6807ZM76.63 60.7301C76.0517 60.7301 75.5036 60.8811 75.0003 61.1687L75.9926 62.9052C76.2052 62.7837 76.4128 62.7301 76.63 62.7301V60.7301ZM75.0049 61.1661C74.5059 61.4478 74.0954 61.841 73.7715 62.323L75.4316 63.4384C75.5964 63.1931 75.7825 63.0238 75.988 62.9078L75.0049 61.1661ZM73.7756 62.3169C73.4367 62.8134 73.2294 63.3789 73.1358 63.9909L75.1128 64.2932C75.1669 63.9393 75.2777 63.6638 75.4275 63.4444L73.7756 62.3169ZM73.1383 63.9752L71.8088 71.8332L73.7807 72.1668L75.1103 64.3089L73.1383 63.9752ZM72.7947 71H69.1726V73H72.7947V71Z" fill="#895454" fill-opacity="0.06"/>
</g>
<g style="mix-blend-mode:lighten">
<mask id="path-5-outside-1_149_21" maskUnits="userSpaceOnUse" x="16" y="81" width="76" height="22" fill="black">
<rect fill="white" x="16" y="81" width="76" height="22"/>
<path d="M18 100.548L21.1963 83L33.0483 83.1461L32.4847 86.2048L24.4173 86.1054L23.6646 90.2868L30.9454 90.3765L30.3818 93.4353L23.101 93.3455L21.7846 100.594L18 100.548Z"/>
<path d="M41.1202 95.2164L42.5017 87.6593L46.2252 87.7052L43.8192 100.866L40.2444 100.822L40.677 98.4312L40.5372 98.4295C40.1136 99.1971 39.5026 99.8107 38.7041 100.27C37.9056 100.73 37.0024 100.954 35.9943 100.941C35.097 100.93 34.342 100.72 33.7295 100.312C33.1228 99.9039 32.6959 99.329 32.449 98.5874C32.202 97.8458 32.1696 96.9609 32.3518 95.9327L33.8924 87.5532L37.6158 87.5991L36.2059 95.3276C36.0736 96.1045 36.1764 96.7212 36.5144 97.1777C36.8525 97.6341 37.374 97.8666 38.0791 97.8753C38.5277 97.8809 38.9631 97.786 39.3852 97.5909C39.8132 97.3901 40.1842 97.0912 40.4981 96.6943C40.8121 96.2974 41.0194 95.8048 41.1202 95.2164Z"/>
<path d="M51.9293 93.3401L50.5384 100.949L46.8237 100.903L49.2297 87.7422L52.7695 87.7858L52.3552 90.1079L52.5038 90.1097C52.9391 89.3422 53.547 88.74 54.3277 88.3031C55.1142 87.8663 56.0057 87.654 57.0021 87.6662C57.9344 87.6777 58.7097 87.8877 59.3281 88.296C59.9523 88.7045 60.3879 89.2795 60.6348 90.021C60.8876 90.7627 60.92 91.6476 60.7321 92.6757L59.1914 101.055L55.468 101.009L56.8867 93.281C57.031 92.4756 56.9342 91.8446 56.5961 91.3882C56.264 90.9261 55.7221 90.6904 54.9705 90.6812C54.4693 90.675 54.0077 90.7752 53.5854 90.9818C53.1632 91.1884 52.8067 91.4932 52.516 91.8961C52.2312 92.2933 52.0356 92.7747 51.9293 93.3401Z"/>
<path d="M67.0354 101.367C66.0098 101.354 65.1303 101.085 64.3969 100.561C63.6693 100.031 63.1547 99.2606 62.8529 98.2493C62.557 97.2324 62.5437 95.9899 62.8131 94.5219C63.0887 93.0139 63.5651 91.7632 64.2422 90.7696C64.9193 89.7704 65.7156 89.0274 66.6309 88.5406C67.5464 88.0481 68.4965 87.8079 69.4812 87.82C70.2271 87.8292 70.8285 87.9626 71.2857 88.2201C71.7487 88.472 66.7895 100.991 67.0354 101.367C67.2812 101.736 72.765 89.8928 72.8595 90.249L72.9731 90.2504L74.1851 83.653L77.8997 83.6988L74.7034 101.246L71.0325 101.201L71.4178 99.0934L71.2605 99.0915C71.0227 99.4549 70.7092 99.8146 70.3201 100.17C69.9368 100.521 69.4727 100.81 68.9278 101.038C68.3887 101.266 67.7579 101.375 67.0354 101.367ZM68.7157 98.4762C69.3101 98.4835 69.8482 98.3298 70.3301 98.0152C70.8121 97.6948 71.2199 97.2447 71.5537 96.6648C71.8875 96.085 72.1235 95.4038 72.2617 94.6212C72.4057 93.8386 72.4173 93.1575 72.2965 92.5778C72.1757 91.9981 71.9308 91.5485 71.5619 91.2291C71.1989 90.9098 70.7143 90.7464 70.1083 90.7389C69.4965 90.7313 68.9525 90.8878 68.4764 91.2083C68.006 91.5288 67.6128 91.9762 67.2966 92.5505C66.9862 93.1249 66.762 93.792 66.6241 94.5517C66.4861 95.3171 66.4687 95.9953 66.5719 96.5863C66.6752 97.1715 66.9053 97.6323 67.2623 97.9688C67.6194 98.2995 68.1039 98.4686 68.7157 98.4762Z"/>
<path d="M90.6287 92.0137L87.2435 92.178C87.2298 91.8859 87.1515 91.6245 87.0088 91.3937C86.8719 91.1573 86.6674 90.9687 86.3953 90.828C86.129 90.6873 85.7919 90.6144 85.3841 90.6094C84.7722 90.6019 84.2257 90.7325 83.7443 91.0014C83.263 91.2703 82.9876 91.6189 82.918 92.0475C82.862 92.3216 82.9319 92.5543 83.1276 92.7456C83.3233 92.937 83.7204 93.1021 84.3189 93.2412L86.6727 93.7511C87.928 94.0299 88.8314 94.479 89.3829 95.0984C89.9403 95.7178 90.1311 96.5216 89.9553 97.5099C89.7989 98.3495 89.4137 99.0804 88.7996 99.7026C88.1857 100.319 87.4103 100.796 86.4735 101.134C85.5368 101.466 84.5003 101.625 83.3641 101.611C81.5403 101.588 80.1581 101.205 79.2177 100.46C78.2773 99.7161 77.8325 98.7173 77.8835 97.4642L81.5219 97.3201C81.5442 97.8585 81.7313 98.2673 82.0832 98.5464C82.4352 98.8198 82.92 98.9632 83.5376 98.9765C84.2309 98.9965 84.8212 98.8635 85.3085 98.5776C85.8018 98.286 86.0832 97.9288 86.1527 97.506C86.2031 97.2089 86.1188 96.9674 85.8997 96.7815C85.6864 96.5957 85.2921 96.4391 84.7168 96.3118L82.4851 95.8292C81.2181 95.5559 80.312 95.0839 79.767 94.4131C79.2219 93.7423 79.0433 92.8957 79.2312 91.8732C79.3815 91.0564 79.7371 90.3595 80.2982 89.7824C80.8651 89.1998 81.5905 88.7564 82.4744 88.4525C83.3641 88.1485 84.3654 88.0035 85.4784 88.0172C87.2206 88.0386 88.5272 88.4068 89.3981 89.1217C90.2748 89.8367 90.685 90.8007 90.6287 92.0137Z"/>
</mask>
<path d="M18 100.548L21.1963 83L33.0483 83.1461L32.4847 86.2048L24.4173 86.1054L23.6646 90.2868L30.9454 90.3765L30.3818 93.4353L23.101 93.3455L21.7846 100.594L18 100.548Z" fill="white"/>
<path d="M41.1202 95.2164L42.5017 87.6593L46.2252 87.7052L43.8192 100.866L40.2444 100.822L40.677 98.4312L40.5372 98.4295C40.1136 99.1971 39.5026 99.8107 38.7041 100.27C37.9056 100.73 37.0024 100.954 35.9943 100.941C35.097 100.93 34.342 100.72 33.7295 100.312C33.1228 99.9039 32.6959 99.329 32.449 98.5874C32.202 97.8458 32.1696 96.9609 32.3518 95.9327L33.8924 87.5532L37.6158 87.5991L36.2059 95.3276C36.0736 96.1045 36.1764 96.7212 36.5144 97.1777C36.8525 97.6341 37.374 97.8666 38.0791 97.8753C38.5277 97.8809 38.9631 97.786 39.3852 97.5909C39.8132 97.3901 40.1842 97.0912 40.4981 96.6943C40.8121 96.2974 41.0194 95.8048 41.1202 95.2164Z" fill="white"/>
<path d="M51.9293 93.3401L50.5384 100.949L46.8237 100.903L49.2297 87.7422L52.7695 87.7858L52.3552 90.1079L52.5038 90.1097C52.9391 89.3422 53.547 88.74 54.3277 88.3031C55.1142 87.8663 56.0057 87.654 57.0021 87.6662C57.9344 87.6777 58.7097 87.8877 59.3281 88.296C59.9523 88.7045 60.3879 89.2795 60.6348 90.021C60.8876 90.7627 60.92 91.6476 60.7321 92.6757L59.1914 101.055L55.468 101.009L56.8867 93.281C57.031 92.4756 56.9342 91.8446 56.5961 91.3882C56.264 90.9261 55.7221 90.6904 54.9705 90.6812C54.4693 90.675 54.0077 90.7752 53.5854 90.9818C53.1632 91.1884 52.8067 91.4932 52.516 91.8961C52.2312 92.2933 52.0356 92.7747 51.9293 93.3401Z" fill="white"/>
<path d="M67.0354 101.367C66.0098 101.354 65.1303 101.085 64.3969 100.561C63.6693 100.031 63.1547 99.2606 62.8529 98.2493C62.557 97.2324 62.5437 95.9899 62.8131 94.5219C63.0887 93.0139 63.5651 91.7632 64.2422 90.7696C64.9193 89.7704 65.7156 89.0274 66.6309 88.5406C67.5464 88.0481 68.4965 87.8079 69.4812 87.82C70.2271 87.8292 70.8285 87.9626 71.2857 88.2201C71.7487 88.472 66.7895 100.991 67.0354 101.367C67.2812 101.736 72.765 89.8928 72.8595 90.249L72.9731 90.2504L74.1851 83.653L77.8997 83.6988L74.7034 101.246L71.0325 101.201L71.4178 99.0934L71.2605 99.0915C71.0227 99.4549 70.7092 99.8146 70.3201 100.17C69.9368 100.521 69.4727 100.81 68.9278 101.038C68.3887 101.266 67.7579 101.375 67.0354 101.367ZM68.7157 98.4762C69.3101 98.4835 69.8482 98.3298 70.3301 98.0152C70.8121 97.6948 71.2199 97.2447 71.5537 96.6648C71.8875 96.085 72.1235 95.4038 72.2617 94.6212C72.4057 93.8386 72.4173 93.1575 72.2965 92.5778C72.1757 91.9981 71.9308 91.5485 71.5619 91.2291C71.1989 90.9098 70.7143 90.7464 70.1083 90.7389C69.4965 90.7313 68.9525 90.8878 68.4764 91.2083C68.006 91.5288 67.6128 91.9762 67.2966 92.5505C66.9862 93.1249 66.762 93.792 66.6241 94.5517C66.4861 95.3171 66.4687 95.9953 66.5719 96.5863C66.6752 97.1715 66.9053 97.6323 67.2623 97.9688C67.6194 98.2995 68.1039 98.4686 68.7157 98.4762Z" fill="white"/>
<path d="M90.6287 92.0137L87.2435 92.178C87.2298 91.8859 87.1515 91.6245 87.0088 91.3937C86.8719 91.1573 86.6674 90.9687 86.3953 90.828C86.129 90.6873 85.7919 90.6144 85.3841 90.6094C84.7722 90.6019 84.2257 90.7325 83.7443 91.0014C83.263 91.2703 82.9876 91.6189 82.918 92.0475C82.862 92.3216 82.9319 92.5543 83.1276 92.7456C83.3233 92.937 83.7204 93.1021 84.3189 93.2412L86.6727 93.7511C87.928 94.0299 88.8314 94.479 89.3829 95.0984C89.9403 95.7178 90.1311 96.5216 89.9553 97.5099C89.7989 98.3495 89.4137 99.0804 88.7996 99.7026C88.1857 100.319 87.4103 100.796 86.4735 101.134C85.5368 101.466 84.5003 101.625 83.3641 101.611C81.5403 101.588 80.1581 101.205 79.2177 100.46C78.2773 99.7161 77.8325 98.7173 77.8835 97.4642L81.5219 97.3201C81.5442 97.8585 81.7313 98.2673 82.0832 98.5464C82.4352 98.8198 82.92 98.9632 83.5376 98.9765C84.2309 98.9965 84.8212 98.8635 85.3085 98.5776C85.8018 98.286 86.0832 97.9288 86.1527 97.506C86.2031 97.2089 86.1188 96.9674 85.8997 96.7815C85.6864 96.5957 85.2921 96.4391 84.7168 96.3118L82.4851 95.8292C81.2181 95.5559 80.312 95.0839 79.767 94.4131C79.2219 93.7423 79.0433 92.8957 79.2312 91.8732C79.3815 91.0564 79.7371 90.3595 80.2982 89.7824C80.8651 89.1998 81.5905 88.7564 82.4744 88.4525C83.3641 88.1485 84.3654 88.0035 85.4784 88.0172C87.2206 88.0386 88.5272 88.4068 89.3981 89.1217C90.2748 89.8367 90.685 90.8007 90.6287 92.0137Z" fill="white"/>
<path d="M18 100.548L17.0162 100.368L16.8041 101.533L17.9877 101.548L18 100.548ZM21.1963 83L21.2086 82.0001L20.3639 81.9897L20.2125 82.8208L21.1963 83ZM33.0483 83.1461L34.0317 83.3273L34.2467 82.1607L33.0606 82.1461L33.0483 83.1461ZM32.4847 86.2048L32.4724 87.2047L33.3154 87.2151L33.4682 86.386L32.4847 86.2048ZM24.4173 86.1054L24.4297 85.1055L23.5831 85.095L23.4331 85.9282L24.4173 86.1054ZM23.6646 90.2868L22.6804 90.1096L22.4711 91.2721L23.6523 91.2867L23.6646 90.2868ZM30.9454 90.3765L31.9288 90.5577L32.1437 89.3912L30.9577 89.3766L30.9454 90.3765ZM30.3818 93.4353L30.3695 94.4352L31.2125 94.4456L31.3652 93.6165L30.3818 93.4353ZM23.101 93.3455L23.1133 92.3456L22.2681 92.3352L22.1171 93.1668L23.101 93.3455ZM21.7846 100.594L21.7723 101.594L22.6175 101.605L22.7685 100.773L21.7846 100.594ZM41.1202 95.2164L40.1364 95.0365L40.1345 95.0476L41.1202 95.2164ZM42.5017 87.6593L42.5141 86.6594L41.6699 86.649L41.518 87.4795L42.5017 87.6593ZM46.2252 87.7052L47.2088 87.885L47.4219 86.7199L46.2375 86.7053L46.2252 87.7052ZM43.8192 100.866L43.8069 101.866L44.6511 101.876L44.8029 101.046L43.8192 100.866ZM40.2444 100.822L39.2603 100.644L39.0498 101.807L40.232 101.822L40.2444 100.822ZM40.677 98.4312L41.661 98.6093L41.8716 97.4458L40.6893 97.4313L40.677 98.4312ZM40.5372 98.4295L40.5495 97.4295L39.9508 97.4222L39.6616 97.9463L40.5372 98.4295ZM38.7041 100.27L39.203 101.137L39.203 101.137L38.7041 100.27ZM35.9943 100.941L35.982 101.941L35.9943 100.941ZM33.7295 100.312L33.1712 101.142L33.1749 101.144L33.7295 100.312ZM32.449 98.5874L31.5002 98.9034L31.5002 98.9034L32.449 98.5874ZM32.3518 95.9327L31.3682 95.7519L31.3671 95.7583L32.3518 95.9327ZM33.8924 87.5532L33.9047 86.5533L33.0614 86.5429L32.9089 87.3724L33.8924 87.5532ZM37.6158 87.5991L38.5996 87.7786L38.8121 86.6138L37.6282 86.5992L37.6158 87.5991ZM36.2059 95.3276L35.222 95.1481L35.2201 95.1597L36.2059 95.3276ZM36.5144 97.1777L37.3181 96.5825L37.3181 96.5825L36.5144 97.1777ZM38.0791 97.8753L38.0914 96.8754L38.0791 97.8753ZM39.3852 97.5909L39.8049 98.4986L39.81 98.4962L39.3852 97.5909ZM40.4981 96.6943L39.7138 96.0739L39.7138 96.0739L40.4981 96.6943ZM51.9293 93.3401L50.9465 93.1554L50.9456 93.1603L51.9293 93.3401ZM50.5384 100.949L50.5261 101.949L51.3702 101.959L51.5221 101.128L50.5384 100.949ZM46.8237 100.903L45.84 100.723L45.627 101.888L46.8114 101.903L46.8237 100.903ZM49.2297 87.7422L49.242 86.7423L48.3978 86.7319L48.246 87.5624L49.2297 87.7422ZM52.7695 87.7858L53.754 87.9615L53.9611 86.8004L52.7819 86.7859L52.7695 87.7858ZM52.3552 90.1079L51.3708 89.9323L51.1636 91.0933L52.3429 91.1078L52.3552 90.1079ZM52.5038 90.1097L52.4915 91.1097L53.0823 91.117L53.3737 90.603L52.5038 90.1097ZM54.3277 88.3031L53.8422 87.4289L53.8393 87.4305L54.3277 88.3031ZM57.0021 87.6662L57.0144 86.6663L57.0021 87.6662ZM59.3281 88.296L58.777 89.1305L58.7806 89.1328L59.3281 88.296ZM60.6348 90.021L59.686 90.337L59.6883 90.3436L60.6348 90.021ZM60.7321 92.6757L61.7156 92.8566L61.7158 92.8556L60.7321 92.6757ZM59.1914 101.055L59.1791 102.055L60.0224 102.066L60.1749 101.236L59.1914 101.055ZM55.468 101.009L54.4844 100.829L54.2704 101.995L55.4556 102.009L55.468 101.009ZM56.8867 93.281L57.8703 93.4615L57.871 93.4574L56.8867 93.281ZM56.5961 91.3882L55.7841 91.9718L55.7883 91.9776L55.7925 91.9833L56.5961 91.3882ZM54.9705 90.6812L54.9828 89.6812L54.9705 90.6812ZM53.5854 90.9818L53.1459 90.0836L53.1459 90.0836L53.5854 90.9818ZM52.516 91.8961L51.7051 91.3109L51.7033 91.3134L52.516 91.8961ZM64.3969 100.561L63.8081 101.37L63.8154 101.375L64.3969 100.561ZM62.8529 98.2493L61.8927 98.5287L61.8946 98.5353L62.8529 98.2493ZM62.8131 94.5219L63.7966 94.7024L63.7968 94.7017L62.8131 94.5219ZM64.2422 90.7696L65.0685 91.3328L65.07 91.3306L64.2422 90.7696ZM66.6309 88.5406L67.1005 89.4235L67.1047 89.4212L66.6309 88.5406ZM69.4812 87.82L69.4935 86.8201L69.4812 87.82ZM71.2857 88.2201L70.7948 89.0914L70.8013 89.095L70.8078 89.0985L71.2857 88.2201ZM72.8595 90.249L71.893 90.5055L72.0878 91.2395L72.8472 91.2489L72.8595 90.249ZM72.9731 90.2504L72.9608 91.2503L73.8043 91.2607L73.9567 90.431L72.9731 90.2504ZM74.1851 83.653L74.1974 82.6531L73.3539 82.6427L73.2015 83.4723L74.1851 83.653ZM77.8997 83.6988L78.8836 83.878L79.0957 82.7134L77.9121 82.6988L77.8997 83.6988ZM74.7034 101.246L74.6911 102.246L75.5359 102.257L75.6873 101.426L74.7034 101.246ZM71.0325 101.201L70.0488 101.021L69.8358 102.186L71.0201 102.201L71.0325 101.201ZM71.4178 99.0934L72.4015 99.2732L72.6145 98.1081L71.4301 98.0935L71.4178 99.0934ZM71.2605 99.0915L71.2728 98.0915L70.724 98.0848L70.4236 98.544L71.2605 99.0915ZM70.3201 100.17L70.9946 100.909L70.9949 100.908L70.3201 100.17ZM68.9278 101.038L68.5418 100.115L68.5381 100.117L68.9278 101.038ZM68.7157 98.4762L68.7034 99.4761L68.7157 98.4762ZM70.3301 98.0152L70.8768 98.8525L70.8837 98.8479L70.3301 98.0152ZM71.5537 96.6648L72.4204 97.1637L72.4204 97.1637L71.5537 96.6648ZM72.2617 94.6212L71.2782 94.4401L71.2769 94.4473L72.2617 94.6212ZM72.2965 92.5778L73.2755 92.3738L73.2755 92.3738L72.2965 92.5778ZM71.5619 91.2291L70.9015 91.98L70.9074 91.9851L71.5619 91.2291ZM70.1083 90.7389L70.096 91.7388L70.1083 90.7389ZM68.4764 91.2083L67.918 90.3786L67.9132 90.3819L68.4764 91.2083ZM67.2966 92.5505L66.4205 92.0682L66.4168 92.0751L67.2966 92.5505ZM66.6241 94.5517L65.6402 94.3731L65.64 94.3743L66.6241 94.5517ZM66.5719 96.5863L65.5868 96.7583L65.5871 96.76L66.5719 96.5863ZM67.2623 97.9688L66.5765 98.6966L66.5828 98.7024L67.2623 97.9688ZM90.6287 92.0137L90.6772 93.0125L91.5855 92.9684L91.6276 92.06L90.6287 92.0137ZM87.2435 92.178L86.2446 92.2251L86.2917 93.2254L87.292 93.1769L87.2435 92.178ZM87.0088 91.3937L86.1433 91.8947L86.1506 91.9073L86.1583 91.9198L87.0088 91.3937ZM86.3953 90.828L85.9282 91.7122L85.9359 91.7162L86.3953 90.828ZM85.3841 90.6094L85.3717 91.6093L85.3841 90.6094ZM83.7443 91.0014L83.2567 90.1284L83.2567 90.1284L83.7443 91.0014ZM82.918 92.0475L83.8978 92.2475L83.9018 92.2277L83.9051 92.2077L82.918 92.0475ZM84.3189 93.2412L84.0926 94.2153L84.0999 94.2169L84.1072 94.2185L84.3189 93.2412ZM86.6727 93.7511L86.8895 92.7749L86.8844 92.7738L86.6727 93.7511ZM89.3829 95.0984L88.6361 95.7634L88.6396 95.7673L89.3829 95.0984ZM89.9553 97.5099L90.9384 97.693L90.9399 97.685L89.9553 97.5099ZM88.7996 99.7026L89.5082 100.408L89.5114 100.405L88.7996 99.7026ZM86.4735 101.134L86.8076 102.076L86.8126 102.075L86.4735 101.134ZM83.3641 101.611L83.3518 102.611L83.3641 101.611ZM79.2177 100.46L79.8383 99.6764L79.2177 100.46ZM77.8835 97.4642L77.8439 96.465L76.9218 96.5015L76.8843 97.4235L77.8835 97.4642ZM81.5219 97.3201L82.5211 97.2788L82.4798 96.2814L81.4823 96.3209L81.5219 97.3201ZM82.0832 98.5464L81.4618 99.3299L81.4698 99.3362L82.0832 98.5464ZM83.5376 98.9765L83.5664 97.9769L83.5592 97.9768L83.5376 98.9765ZM85.3085 98.5776L85.8146 99.4401L85.8174 99.4384L85.3085 98.5776ZM86.1527 97.506L85.1668 97.3387L85.1659 97.3438L86.1527 97.506ZM85.8997 96.7815L85.2427 97.5355L85.2527 97.544L85.8997 96.7815ZM84.7168 96.3118L84.9329 95.3354L84.9282 95.3344L84.7168 96.3118ZM82.4851 95.8292L82.6964 94.8518L82.6959 94.8516L82.4851 95.8292ZM79.767 94.4131L78.9909 95.0437L78.9909 95.0437L79.767 94.4131ZM79.2312 91.8732L78.2477 91.6922L78.2477 91.6925L79.2312 91.8732ZM80.2982 89.7824L79.5814 89.0851L79.5812 89.0854L80.2982 89.7824ZM82.4744 88.4525L82.1511 87.5061L82.1492 87.5068L82.4744 88.4525ZM85.4784 88.0172L85.466 89.0171L85.4784 88.0172ZM89.3981 89.1217L88.7636 89.8947L88.7661 89.8967L89.3981 89.1217ZM18.9838 100.727L22.1801 83.1792L20.2125 82.8208L17.0162 100.368L18.9838 100.727ZM21.184 83.9999L33.036 84.146L33.0606 82.1461L21.2086 82.0001L21.184 83.9999ZM32.0649 82.9649L31.5013 86.0236L33.4682 86.386L34.0317 83.3273L32.0649 82.9649ZM32.4971 85.2049L24.4297 85.1055L24.405 87.1053L32.4724 87.2047L32.4971 85.2049ZM23.4331 85.9282L22.6804 90.1096L24.6488 90.4639L25.4015 86.2826L23.4331 85.9282ZM23.6523 91.2867L30.933 91.3764L30.9577 89.3766L23.6769 89.2868L23.6523 91.2867ZM29.9619 90.1953L29.3983 93.2541L31.3652 93.6165L31.9288 90.5577L29.9619 90.1953ZM30.3941 92.4353L23.1133 92.3456L23.0887 94.3455L30.3695 94.4352L30.3941 92.4353ZM22.1171 93.1668L20.8007 100.416L22.7685 100.773L24.0849 93.5242L22.1171 93.1668ZM21.7969 99.5943L18.0123 99.5477L17.9877 101.548L21.7723 101.594L21.7969 99.5943ZM42.1039 95.3962L43.4854 87.8391L41.518 87.4795L40.1365 95.0365L42.1039 95.3962ZM42.4894 88.6592L46.2128 88.7051L46.2375 86.7053L42.5141 86.6594L42.4894 88.6592ZM45.2415 87.5254L42.8355 100.686L44.8029 101.046L47.2088 87.885L45.2415 87.5254ZM43.8315 99.8659L40.2567 99.8218L40.232 101.822L43.8069 101.866L43.8315 99.8659ZM41.2284 101L41.661 98.6093L39.693 98.2531L39.2603 100.644L41.2284 101ZM40.6893 97.4313L40.5495 97.4295L40.5248 99.4294L40.6647 99.4311L40.6893 97.4313ZM39.6616 97.9463C39.3308 98.5459 38.8539 99.0303 38.2052 99.4037L39.203 101.137C40.1513 100.591 40.8964 99.8483 41.4127 98.9126L39.6616 97.9463ZM38.2052 99.4037C37.5766 99.7655 36.8529 99.9516 36.0066 99.9412L35.982 101.941C37.1519 101.955 38.2347 101.694 39.203 101.137L38.2052 99.4037ZM36.0066 99.9412C35.2599 99.932 34.7038 99.7597 34.2841 99.48L33.1749 101.144C33.9803 101.681 34.9341 101.928 35.982 101.941L36.0066 99.9412ZM34.2877 99.4824C33.8774 99.2063 33.58 98.8187 33.3978 98.2714L31.5002 98.9034C31.8119 99.8392 32.3681 100.601 33.1712 101.142L34.2877 99.4824ZM33.3978 98.2714C33.2181 97.732 33.1739 97.0244 33.3364 96.1071L31.3671 95.7583C31.1653 96.8975 31.186 97.9597 31.5002 98.9034L33.3978 98.2714ZM33.3353 96.1135L34.8759 87.734L32.9089 87.3724L31.3682 95.7519L33.3353 96.1135ZM33.8801 88.5531L37.6035 88.599L37.6282 86.5992L33.9047 86.5533L33.8801 88.5531ZM36.6321 87.4196L35.2221 95.1481L37.1896 95.507L38.5996 87.7786L36.6321 87.4196ZM35.2201 95.1597C35.0602 96.0985 35.1559 97.0235 35.7108 97.7728L37.3181 96.5825C37.1969 96.4189 37.0869 96.1105 37.1917 95.4954L35.2201 95.1597ZM35.7108 97.7728C36.2796 98.5408 37.1328 98.8638 38.0667 98.8753L38.0914 96.8754C37.6151 96.8695 37.4253 96.7274 37.3181 96.5825L35.7108 97.7728ZM38.0667 98.8753C38.67 98.8827 39.2525 98.7539 39.8049 98.4985L38.9655 96.6832C38.6737 96.8181 38.3855 96.879 38.0914 96.8754L38.0667 98.8753ZM39.81 98.4962C40.388 98.2249 40.8792 97.8244 41.2824 97.3147L39.7138 96.0739C39.4891 96.358 39.2384 96.5552 38.9604 96.6856L39.81 98.4962ZM41.2824 97.3147C41.7174 96.7648 41.9819 96.1089 42.1058 95.3851L40.1345 95.0476C40.0569 95.5007 39.9067 95.8301 39.7138 96.0739L41.2824 97.3147ZM50.9456 93.1603L49.5547 100.769L51.5221 101.128L52.913 93.52L50.9456 93.1603ZM50.5507 99.9487L46.836 99.9029L46.8114 101.903L50.5261 101.949L50.5507 99.9487ZM47.8074 101.083L50.2134 87.922L48.246 87.5624L45.84 100.723L47.8074 101.083ZM49.2173 88.7421L52.7572 88.7858L52.7819 86.7859L49.242 86.7423L49.2173 88.7421ZM51.7851 87.6102L51.3708 89.9323L53.3397 90.2836L53.754 87.9615L51.7851 87.6102ZM52.3429 91.1078L52.4915 91.1097L52.5161 89.1098L52.3676 89.108L52.3429 91.1078ZM53.3737 90.603C53.7175 89.9968 54.1925 89.5247 54.8161 89.1757L53.8393 87.4305C52.9016 87.9553 52.1606 88.6877 51.634 89.6165L53.3737 90.603ZM54.8133 89.1773C55.4317 88.8338 56.1483 88.6558 56.9898 88.6662L57.0144 86.6663C55.8631 86.6521 54.7968 86.8987 53.8422 87.4289L54.8133 89.1773ZM56.9898 88.6662C57.7796 88.6759 58.3554 88.852 58.777 89.1305L59.8792 87.4616C59.0641 86.9233 58.0892 86.6796 57.0144 86.6663L56.9898 88.6662ZM58.7806 89.1328C59.2066 89.4116 59.5067 89.7983 59.6861 90.337L61.5836 89.7051C61.2691 88.7606 60.6979 87.9973 59.8756 87.4593L58.7806 89.1328ZM59.6883 90.3436C59.8707 90.8786 59.9155 91.5816 59.7484 92.4959L61.7158 92.8556C61.9245 91.7135 61.9046 90.6467 61.5814 89.6984L59.6883 90.3436ZM59.7485 92.4949L58.2079 100.874L60.1749 101.236L61.7156 92.8566L59.7485 92.4949ZM59.2037 100.055L55.4803 100.009L55.4556 102.009L59.1791 102.055L59.2037 100.055ZM56.4515 101.19L57.8702 93.4615L55.9031 93.1004L54.4844 100.829L56.4515 101.19ZM57.871 93.4574C58.0422 92.5019 57.9628 91.5533 57.3998 90.793L55.7925 91.9833C55.9056 92.1359 56.0198 92.4492 55.9024 93.1046L57.871 93.4574ZM57.4082 90.8046C56.8342 90.0059 55.9407 89.693 54.9828 89.6812L54.9581 91.6811C55.5035 91.6878 55.6939 91.8463 55.7841 91.9718L57.4082 90.8046ZM54.9828 89.6812C54.3358 89.6733 53.7179 89.8037 53.1459 90.0836L54.0249 91.88C54.2974 91.7467 54.6029 91.6767 54.9581 91.6811L54.9828 89.6812ZM53.1459 90.0836C52.5676 90.3666 52.0863 90.7826 51.7051 91.3109L53.3269 92.4812C53.5271 92.2038 53.7588 92.0103 54.0249 91.88L53.1459 90.0836ZM51.7033 91.3134C51.3197 91.8485 51.0751 92.4716 50.9465 93.1554L52.9121 93.5249C52.9962 93.0777 53.1427 92.7382 53.3287 92.4788L51.7033 91.3134ZM67.0477 100.367C66.1973 100.356 65.5234 100.137 64.9784 99.7477L63.8154 101.375C64.7373 102.034 65.8223 102.352 67.023 102.367L67.0477 100.367ZM64.9856 99.7529C64.4644 99.3732 64.0615 98.8024 63.8111 97.9634L61.8946 98.5353C62.2478 99.7189 62.8743 100.689 63.8081 101.369L64.9856 99.7529ZM63.8131 97.97C63.5747 97.1507 63.5446 96.076 63.7966 94.7024L61.8295 94.3414C61.5428 95.9037 61.5393 97.314 61.8927 98.5287L63.8131 97.97ZM63.7968 94.7017C64.054 93.2947 64.4886 92.1838 65.0685 91.3328L63.4158 90.2065C62.6417 91.3425 62.1235 92.7331 61.8294 94.3421L63.7968 94.7017ZM65.07 91.3306C65.6708 90.4441 66.351 89.8221 67.1005 89.4235L66.1614 87.6577C65.0802 88.2327 64.1678 89.0968 63.4144 90.2087L65.07 91.3306ZM67.1047 89.4212C67.8794 89.0044 68.6632 88.81 69.4689 88.82L69.4935 86.8201C68.3298 86.8058 67.2133 87.0917 66.1571 87.66L67.1047 89.4212ZM69.4689 88.82C70.1135 88.8279 70.5326 88.9436 70.7948 89.0914L71.7765 87.3489C71.1245 86.9815 70.3406 86.8305 69.4935 86.8201L69.4689 88.82ZM70.8078 89.0985C70.3631 88.8567 70.3231 88.4173 70.3225 88.4129C70.3111 88.3285 70.3191 88.2797 70.3167 88.3032C70.3132 88.3375 70.2975 88.4305 70.2551 88.6018C70.1734 88.9322 70.028 89.4151 69.8315 90.0179C69.4409 91.2166 68.877 92.8032 68.3007 94.4094C67.7272 96.0078 67.1412 97.6257 66.7152 98.8644C66.5028 99.4823 66.3248 100.021 66.2069 100.423C66.1489 100.62 66.0988 100.807 66.0675 100.962C66.0524 101.036 66.0355 101.133 66.0292 101.234C66.0261 101.284 66.0236 101.363 66.0341 101.454C66.0423 101.525 66.0691 101.717 66.1989 101.915L67.8718 100.819C67.9939 101.005 68.0156 101.178 68.0211 101.226C68.0289 101.294 68.0263 101.343 68.0253 101.359C68.0233 101.391 68.0202 101.396 68.0279 101.358C68.0419 101.288 68.0728 101.167 68.1259 100.986C68.2303 100.63 68.3959 100.127 68.6065 99.5148C69.0268 98.2927 69.6056 96.6946 70.1832 95.0849C70.758 93.4828 71.3318 91.8689 71.7331 90.6376C71.9326 90.0255 72.0967 89.486 72.1966 89.082C72.2451 88.8862 72.2882 88.684 72.3063 88.5071C72.3147 88.425 72.3243 88.2915 72.3045 88.1449C72.2955 88.0784 72.2371 87.5993 71.7635 87.3417L70.8078 89.0985ZM66.2029 101.921C66.3787 102.185 66.691 102.381 67.066 102.375C67.3518 102.371 67.5517 102.249 67.6227 102.202C67.7777 102.1 67.8809 101.973 67.9176 101.928C68.0172 101.805 68.1181 101.647 68.2085 101.497C68.399 101.181 68.6456 100.727 68.9221 100.198C69.4786 99.1334 70.1952 97.6883 70.9013 96.2546C71.6103 94.8148 72.3087 93.3868 72.8372 92.3377C73.1024 91.8114 73.3181 91.394 73.4678 91.1227C73.546 90.9809 73.5913 90.9064 73.6093 90.8798C73.6313 90.8474 73.5917 90.9143 73.5077 90.9907C73.481 91.0149 73.4289 91.0596 73.354 91.1039C73.288 91.1431 73.137 91.2228 72.9245 91.2384C72.6721 91.257 72.392 91.1783 72.1723 90.9723C71.9852 90.7969 71.918 90.5997 71.893 90.5055L73.826 89.9924C73.7995 89.8926 73.7302 89.6914 73.5403 89.5134C73.3179 89.3048 73.0343 89.2249 72.7778 89.2438C72.5613 89.2597 72.4056 89.3412 72.3342 89.3835C72.254 89.431 72.1959 89.4802 72.1627 89.5105C72.0524 89.6107 71.9766 89.7239 71.9531 89.7586C71.8803 89.8662 71.7979 90.0092 71.7166 90.1565C71.5474 90.4633 71.3172 90.9097 71.0511 91.4379C70.5172 92.4977 69.8115 93.9406 69.1071 95.3709C68.3997 96.8074 67.6933 98.2315 67.1495 99.2721C66.8759 99.7957 66.653 100.204 66.4961 100.464C66.4578 100.527 66.4262 100.577 66.4012 100.615C66.3747 100.655 66.3625 100.67 66.3628 100.67C66.3632 100.669 66.3733 100.657 66.3922 100.638C66.4072 100.622 66.4523 100.578 66.5241 100.531C66.5776 100.495 66.7622 100.379 67.0353 100.375C67.3977 100.37 67.6997 100.56 67.8678 100.813L66.2029 101.921ZM72.8472 91.2489L72.9608 91.2503L72.9854 89.2504L72.8718 89.249L72.8472 91.2489ZM73.9567 90.431L75.1686 83.8337L73.2015 83.4723L71.9896 90.0697L73.9567 90.431ZM74.1727 84.6529L77.8874 84.6987L77.9121 82.6988L74.1974 82.6531L74.1727 84.6529ZM76.9159 83.5196L73.7196 101.067L75.6873 101.426L78.8836 83.878L76.9159 83.5196ZM74.7158 100.246L71.0448 100.201L71.0201 102.201L74.6911 102.246L74.7158 100.246ZM72.0162 101.381L72.4015 99.2732L70.4341 98.9136L70.0488 101.021L72.0162 101.381ZM71.4301 98.0935L71.2728 98.0915L71.2481 100.091L71.4055 100.093L71.4301 98.0935ZM70.4236 98.544C70.2402 98.8244 69.9853 99.1215 69.6452 99.4325L70.9949 100.908C71.4332 100.508 71.8052 100.085 72.0973 99.6389L70.4236 98.544ZM69.6455 99.4322C69.3579 99.695 68.995 99.9257 68.5418 100.115L69.3138 101.96C69.9503 101.694 70.5156 101.346 70.9946 100.909L69.6455 99.4322ZM68.5381 100.117C68.1523 100.28 67.6637 100.374 67.0477 100.367L67.023 102.367C67.8521 102.377 68.6252 102.252 69.3174 101.959L68.5381 100.117ZM68.7034 99.4761C69.4892 99.4858 70.2232 99.2793 70.8768 98.8525L69.7834 97.1778C69.4733 97.3803 69.1309 97.4812 68.728 97.4762L68.7034 99.4761ZM70.8837 98.8479C71.5131 98.4295 72.0215 97.8566 72.4204 97.1637L70.687 96.166C70.4184 96.6327 70.111 96.96 69.7765 97.1824L70.8837 98.8479ZM72.4204 97.1637C72.8218 96.4663 73.0917 95.6711 73.2464 94.7951L71.2769 94.4473C71.1552 95.1365 70.9531 95.7037 70.687 96.166L72.4204 97.1637ZM73.2452 94.8022C73.405 93.9335 73.4301 93.1158 73.2755 92.3738L71.3175 92.7818C71.4045 93.1992 71.4064 93.7438 71.2782 94.4402L73.2452 94.8022ZM73.2755 92.3738C73.1198 91.6265 72.7841 90.9646 72.2165 90.4731L70.9074 91.9851C71.0776 92.1325 71.2316 92.3696 71.3175 92.7818L73.2755 92.3738ZM72.2224 90.4782C71.638 89.9643 70.903 89.7486 70.1206 89.739L70.096 91.7388C70.5256 91.7441 70.7597 91.8553 70.9015 91.98L72.2224 90.4782ZM70.1206 89.739C69.3199 89.7291 68.574 89.9371 67.918 90.3786L69.0347 92.0379C69.331 91.8385 69.6731 91.7336 70.096 91.7388L70.1206 89.739ZM67.9132 90.3819C67.2946 90.8035 66.801 91.3772 66.4206 92.0682L68.1726 93.0328C68.4245 92.5752 68.7175 92.2541 69.0395 92.0346L67.9132 90.3819ZM66.4168 92.0751C66.048 92.7575 65.7936 93.528 65.6402 94.3731L67.608 94.7303C67.7304 94.056 67.9243 93.4923 68.1763 93.0259L66.4168 92.0751ZM65.64 94.3743C65.487 95.2227 65.4584 96.0231 65.5868 96.7583L67.557 96.4143C67.479 95.9675 67.4852 95.4115 67.6082 94.7291L65.64 94.3743ZM65.5871 96.76C65.7197 97.5114 66.0319 98.1834 66.5765 98.6965L67.9481 97.241C67.7787 97.0813 67.6306 96.8316 67.5567 96.4125L65.5871 96.76ZM66.5828 98.7024C67.165 99.2416 67.91 99.4663 68.7034 99.4761L68.728 97.4762C68.2978 97.4709 68.0739 97.3574 67.9418 97.2351L66.5828 98.7024ZM90.5802 91.0148L87.195 91.1792L87.292 93.1769L90.6772 93.0125L90.5802 91.0148ZM88.2424 92.131C88.2213 91.6828 88.0982 91.254 87.8592 90.8676L86.1583 91.9198C86.2048 91.9949 86.2382 92.089 86.2446 92.2251L88.2424 92.131ZM87.8742 90.8927C87.6304 90.4716 87.2751 90.1572 86.8548 89.9397L85.9359 91.7162C86.0597 91.7802 86.1134 91.843 86.1433 91.8947L87.8742 90.8927ZM86.8624 89.9438C86.4152 89.7075 85.9093 89.6158 85.3964 89.6095L85.3717 91.6093C85.6746 91.6131 85.8429 91.6671 85.9282 91.7122L86.8624 89.9438ZM85.3964 89.6095C84.6293 89.6 83.907 89.7651 83.2567 90.1284L84.232 91.8744C84.5443 91.7 84.9151 91.6037 85.3717 91.6093L85.3964 89.6095ZM83.2567 90.1284C82.5874 90.5022 82.0622 91.0784 81.9309 91.8872L83.9051 92.2077C83.9129 92.1595 83.9386 92.0383 84.232 91.8744L83.2567 90.1284ZM81.9382 91.8475C81.8161 92.4455 81.9835 93.0255 82.4286 93.4607L83.8267 92.0306C83.8343 92.038 83.8666 92.0747 83.8862 92.14C83.8952 92.1699 83.8987 92.1968 83.8993 92.2178C83.8998 92.2382 83.8975 92.2488 83.8978 92.2475L81.9382 91.8475ZM82.4286 93.4607C82.8407 93.8636 83.4873 94.0746 84.0926 94.2153L84.5452 92.2671C84.2791 92.2053 84.0872 92.1442 83.9563 92.0897C83.8156 92.0312 83.7969 92.0014 83.8267 92.0306L82.4286 93.4607ZM84.1072 94.2185L86.461 94.7284L86.8844 92.7738L84.5307 92.2639L84.1072 94.2185ZM86.4559 94.7273C87.6115 94.984 88.282 95.3657 88.6361 95.7634L90.1297 94.4333C89.3808 93.5923 88.2444 93.0758 86.8895 92.7749L86.4559 94.7273ZM88.6396 95.7673C88.9479 96.1099 89.1049 96.5808 88.9708 97.3348L90.9399 97.685C91.1573 96.4625 90.9327 95.3257 90.1263 94.4295L88.6396 95.7673ZM88.9722 97.3268C88.8533 97.9652 88.5652 98.5166 88.0879 99.0002L89.5114 100.405C90.2622 99.6443 90.7445 98.7338 90.9384 97.693L88.9722 97.3268ZM88.0911 98.9969C87.5955 99.4946 86.9523 99.8982 86.1344 100.193L86.8126 102.075C87.8683 101.694 88.7758 101.144 89.5082 100.408L88.0911 98.9969ZM86.1395 100.191C85.3287 100.479 84.4114 100.624 83.3764 100.611L83.3518 102.611C84.5893 102.626 85.745 102.453 86.8075 102.076L86.1395 100.191ZM83.3764 100.611C81.6644 100.59 80.5358 100.228 79.8383 99.6764L78.597 101.245C79.7804 102.181 81.4161 102.587 83.3518 102.611L83.3764 100.611ZM79.8383 99.6764C79.1619 99.141 78.844 98.4555 78.8827 97.5048L76.8843 97.4235C76.821 98.9791 77.3926 100.291 78.597 101.245L79.8383 99.6764ZM77.9231 98.4634L81.5615 98.3193L81.4823 96.3209L77.8439 96.465L77.9231 98.4634ZM80.5228 97.3614C80.5544 98.1268 80.8365 98.8339 81.4618 99.3299L82.7046 97.7629C82.6261 97.7006 82.5339 97.5903 82.5211 97.2788L80.5228 97.3614ZM81.4698 99.3362C82.0459 99.7836 82.7648 99.9601 83.516 99.9763L83.5592 97.9768C83.0753 97.9663 82.8246 97.856 82.6966 97.7567L81.4698 99.3362ZM83.5088 99.9761C84.3469 100 85.1321 99.8406 85.8146 99.4401L84.8025 97.7151C84.5103 97.8865 84.1148 97.9928 83.5664 97.977L83.5088 99.9761ZM85.8174 99.4384C86.4742 99.0501 87.007 98.4737 87.1394 97.6682L85.1659 97.3438C85.1594 97.3838 85.1294 97.5218 84.7996 97.7168L85.8174 99.4384ZM87.1386 97.6733C87.2446 97.0489 87.0506 96.4466 86.5467 96.019L85.2527 97.544C85.2436 97.5362 85.2067 97.4992 85.1832 97.4317C85.1605 97.3668 85.1688 97.3269 85.1668 97.3387L87.1386 97.6733ZM86.5566 96.0276C86.141 95.6654 85.5307 95.4677 84.9329 95.3354L84.5007 97.2882C84.7547 97.3444 84.9424 97.4015 85.075 97.4541C85.2142 97.5094 85.2528 97.5442 85.2427 97.5354L86.5566 96.0276ZM84.9282 95.3344L82.6964 94.8518L82.2737 96.8066L84.5054 97.2892L84.9282 95.3344ZM82.6959 94.8516C81.5448 94.6034 80.8884 94.2075 80.5431 93.7825L78.9909 95.0437C79.7357 95.9603 80.8913 96.5085 82.2743 96.8067L82.6959 94.8516ZM80.5431 93.7825C80.2199 93.3848 80.0679 92.8527 80.2147 92.054L78.2477 91.6925C78.0186 92.9387 78.2238 94.0997 78.9909 95.0437L80.5431 93.7825ZM80.2147 92.0542C80.3304 91.4254 80.5967 90.91 81.0151 90.4795L79.5812 89.0854C78.8776 89.809 78.4326 90.6874 78.2477 91.6922L80.2147 92.0542ZM81.0149 90.4798C81.4572 90.0251 82.0416 89.6588 82.7996 89.3981L82.1492 87.5068C81.1394 87.8541 80.2729 88.3744 79.5814 89.0851L81.0149 90.4798ZM82.7976 89.3988C83.5616 89.1378 84.4467 89.0045 85.466 89.0171L85.4907 87.0172C84.2841 87.0024 83.1666 87.1593 82.1511 87.5061L82.7976 89.3988ZM85.466 89.0171C87.0986 89.0372 88.1415 89.384 88.7636 89.8946L90.0325 88.3488C88.9129 87.4296 87.3426 87.0401 85.4907 87.0172L85.466 89.0171ZM88.7661 89.8967C89.377 90.3949 89.6726 91.0437 89.6298 91.9673L91.6276 92.06C91.6973 90.5576 91.1725 89.2784 90.0301 88.3468L88.7661 89.8967Z" fill="#895454" fill-opacity="0.06" mask="url(#path-5-outside-1_149_21)"/>
</g>
</svg>
