<svg width="170" height="147" viewBox="0 0 170 147" fill="none" xmlns="http://www.w3.org/2000/svg">
<path d="M163.046 73.3415C162.519 111.655 125.774 145.527 81.03 144.925C36.2857 144.323 0.48581 109.475 1.01262 71.1617C1.53943 32.8485 38.2389 2.2775 82.9831 2.87941C127.727 3.48133 163.573 35.0283 163.046 73.3415Z" fill="black"/>
<path d="M90.8594 84.3029L84.8056 82.8025C81.4093 82.0104 76.8347 80.642 76.3457 78.5063C75.9959 77.0075 78.2342 75.8424 80.7573 75.577L80.6947 80.0955L84.9773 81.0862L85.0528 75.6337C85.9428 75.571 90.0857 75.9624 90.0754 76.709C90.0682 77.2318 87.9122 77.8382 87.8895 79.4812C87.8667 81.1242 90.6645 82.3942 93.9231 82.4378C97.5523 82.4863 100.677 81.4822 100.705 79.5032C100.761 75.4323 91.4519 73.6646 85.0828 73.4672L85.0974 72.4087C85.1673 72.0138 85.2537 71.6277 85.3527 71.2566C85.6918 69.9999 86.6157 68.6933 87.7982 67.4895C89.1763 66.0929 90.3911 65.3339 93.5773 64.2022C96.7828 63.0616 102.291 62.818 102.291 62.818C102.291 62.818 96.9493 63.8593 93.4577 65.4962C91.0022 66.6474 89.8539 67.7038 88.6916 69.4055C91.0128 69.5066 96.3252 69.2545 100.46 67.7462C107.187 65.2949 108.689 61.8486 108.689 61.8486C108.689 61.8486 97.3645 58.7772 90.2103 62.4081C88.518 63.2672 87.5145 64.2782 86.6137 65.2153C85.7078 66.1523 84.0278 68.8151 84.0278 68.8151C84.6345 64.2086 87.4193 62.23 88.5468 60.2579C90.3129 57.4153 91.101 54.3059 86.4485 50.5685C76.3941 42.4816 56.8595 42 56.8595 42C56.8595 42 57.3191 53.416 65.4406 58.8184C69.0858 61.2449 73.5626 62.6152 77.3619 63.3828C78.3508 60.1684 78.7656 58.8375 77.7802 56.034C76.2388 51.6576 68.6648 47.8792 68.6648 47.8792C68.6648 47.8792 75.3172 49.917 78.7049 53.1827C80.9016 55.3004 81.5085 57.4676 81.5325 59.4519C81.5551 61.3485 80.4914 66.2448 80.8548 70.7599L80.8239 70.7595L80.7862 73.4858C72.4833 73.9354 65.5466 77.2792 65.3351 81.8703C65.1292 86.0508 69.9847 88.5064 80.5416 91.1497C89.4769 93.1738 91.6836 94.2868 91.6593 96.042C91.6324 97.984 87.9095 99.3162 84.726 99.2367L84.8015 93.7842L80.5173 92.9049L80.4305 99.1786C79.2407 99.4242 73.1792 98.4842 73.189 97.7746C73.1947 97.364 77.1262 97.0429 77.1567 94.8394C77.182 93.0096 74.463 91.4415 70.7593 91.392C66.6863 91.3376 63.7011 92.8295 63.6726 94.8831C63.6142 99.1032 73.735 101.181 80.4005 101.344L80.3581 104.407L84.6536 104.464L84.696 101.402C94.2543 101.268 102.594 98.1299 102.667 92.8641C102.73 88.4209 98.4651 86.1601 90.8594 84.3029Z" fill="white"/>
<g style="mix-blend-mode:lighten">
<path d="M48.4261 31L51.3239 13.5455H55.0142L52.6278 27.9574H60.1108L59.5994 31H48.4261ZM65.674 31.2472C64.8445 31.2472 64.1257 31.1023 63.5178 30.8125C62.9155 30.517 62.4723 30.0795 62.1882 29.5C61.9041 28.9205 61.8331 28.2017 61.9751 27.3438C62.1001 26.6165 62.3359 26.0085 62.6825 25.5199C63.0348 25.0256 63.4638 24.6278 63.9695 24.3267C64.4751 24.0256 65.0348 23.7955 65.6484 23.6364C66.2678 23.4773 66.907 23.3693 67.5661 23.3125C68.3274 23.233 68.9467 23.1562 69.424 23.0824C69.907 23.0085 70.2678 22.9034 70.5064 22.767C70.745 22.625 70.8899 22.4148 70.9411 22.1364V22.0852C71.0263 21.5511 70.9268 21.1364 70.6428 20.8409C70.3643 20.5398 69.9183 20.3892 69.3047 20.3892C68.657 20.3892 68.1058 20.5312 67.6513 20.8153C67.2024 21.0994 66.8814 21.4602 66.6882 21.8977L63.3814 21.625C63.6768 20.8295 64.1229 20.142 64.7195 19.5625C65.3217 18.9773 66.0462 18.5284 66.8928 18.2159C67.7393 17.8977 68.6882 17.7386 69.7393 17.7386C70.4666 17.7386 71.1456 17.8239 71.7763 17.9943C72.4126 18.1648 72.9609 18.429 73.4212 18.7869C73.8871 19.1449 74.2223 19.6051 74.4268 20.1676C74.6371 20.7244 74.6797 21.392 74.5547 22.1705L73.0803 31H69.6371L69.9439 29.1847H69.8416C69.5632 29.5938 69.2223 29.9545 68.8189 30.267C68.4155 30.5739 67.9524 30.8153 67.4297 30.9915C66.907 31.1619 66.3217 31.2472 65.674 31.2472ZM67.1314 28.7415C67.6598 28.7415 68.1456 28.6364 68.5888 28.4261C69.0376 28.2102 69.407 27.9205 69.6967 27.5568C69.9922 27.1932 70.1797 26.7812 70.2592 26.321L70.4808 24.9318C70.3672 25.0057 70.2024 25.071 69.9865 25.1278C69.7763 25.1847 69.5462 25.2386 69.2962 25.2898C69.0518 25.3352 68.8047 25.3778 68.5547 25.4176C68.3047 25.4517 68.0803 25.4858 67.8814 25.5199C67.4439 25.5824 67.0518 25.6818 66.7053 25.8182C66.3587 25.9545 66.0774 26.1392 65.8615 26.3722C65.6456 26.5994 65.5121 26.8835 65.4609 27.2244C65.3814 27.7188 65.4979 28.0966 65.8104 28.358C66.1286 28.6136 66.5689 28.7415 67.1314 28.7415ZM85.0419 17.9091L84.5902 20.6364H76.6982L77.1584 17.9091H85.0419ZM79.4595 14.7727H83.0902L81.0618 26.9773C81.005 27.3125 81.0135 27.5739 81.0874 27.7614C81.1612 27.9432 81.2834 28.071 81.4538 28.1449C81.63 28.2187 81.8402 28.2557 82.0845 28.2557C82.255 28.2557 82.4283 28.2415 82.6044 28.2131C82.7805 28.179 82.9141 28.1534 83.005 28.1364L83.1413 30.8381C82.9368 30.9006 82.6612 30.9687 82.3146 31.0426C81.9737 31.1165 81.5703 31.1619 81.1044 31.179C80.218 31.2131 79.468 31.0966 78.8544 30.8295C78.2408 30.5568 77.8004 30.1392 77.5334 29.5767C77.2663 29.0142 77.2095 28.3068 77.3629 27.4545L79.4595 14.7727ZM88.924 31.2472C88.0945 31.2472 87.3757 31.1023 86.7678 30.8125C86.1655 30.517 85.7223 30.0795 85.4382 29.5C85.1541 28.9205 85.0831 28.2017 85.2251 27.3438C85.3501 26.6165 85.5859 26.0085 85.9325 25.5199C86.2848 25.0256 86.7138 24.6278 87.2195 24.3267C87.7251 24.0256 88.2848 23.7955 88.8984 23.6364C89.5178 23.4773 90.157 23.3693 90.8161 23.3125C91.5774 23.233 92.1967 23.1562 92.674 23.0824C93.157 23.0085 93.5178 22.9034 93.7564 22.767C93.995 22.625 94.1399 22.4148 94.1911 22.1364V22.0852C94.2763 21.5511 94.1768 21.1364 93.8928 20.8409C93.6143 20.5398 93.1683 20.3892 92.5547 20.3892C91.907 20.3892 91.3558 20.5312 90.9013 20.8153C90.4524 21.0994 90.1314 21.4602 89.9382 21.8977L86.6314 21.625C86.9268 20.8295 87.3729 20.142 87.9695 19.5625C88.5717 18.9773 89.2962 18.5284 90.1428 18.2159C90.9893 17.8977 91.9382 17.7386 92.9893 17.7386C93.7166 17.7386 94.3956 17.8239 95.0263 17.9943C95.6626 18.1648 96.2109 18.429 96.6712 18.7869C97.1371 19.1449 97.4723 19.6051 97.6768 20.1676C97.8871 20.7244 97.9297 21.392 97.8047 22.1705L96.3303 31H92.8871L93.1939 29.1847H93.0916C92.8132 29.5938 92.4723 29.9545 92.0689 30.267C91.6655 30.5739 91.2024 30.8153 90.6797 30.9915C90.157 31.1619 89.5717 31.2472 88.924 31.2472ZM90.3814 28.7415C90.9098 28.7415 91.3956 28.6364 91.8388 28.4261C92.2876 28.2102 92.657 27.9205 92.9467 27.5568C93.2422 27.1932 93.4297 26.7812 93.5092 26.321L93.7308 24.9318C93.6172 25.0057 93.4524 25.071 93.2365 25.1278C93.0263 25.1847 92.7962 25.2386 92.5462 25.2898C92.3018 25.3352 92.0547 25.3778 91.8047 25.4176C91.5547 25.4517 91.3303 25.4858 91.1314 25.5199C90.6939 25.5824 90.3018 25.6818 89.9553 25.8182C89.6087 25.9545 89.3274 26.1392 89.1115 26.3722C88.8956 26.5994 88.7621 26.8835 88.7109 27.2244C88.6314 27.7188 88.7479 28.0966 89.0604 28.358C89.3786 28.6136 89.8189 28.7415 90.3814 28.7415ZM99.1726 31L101.354 17.9091H104.806L104.431 20.2188H104.576C104.974 19.4517 105.528 18.8466 106.238 18.4034C106.954 17.9602 107.758 17.7386 108.65 17.7386C109.536 17.7386 110.258 17.9631 110.815 18.4119C111.377 18.8551 111.701 19.4574 111.786 20.2188H111.923C112.309 19.4688 112.891 18.8693 113.67 18.4205C114.448 17.9659 115.317 17.7386 116.278 17.7386C117.488 17.7386 118.414 18.1278 119.056 18.9062C119.698 19.6847 119.9 20.7812 119.661 22.196L118.195 31H114.565L115.928 22.9119C116.036 22.179 115.928 21.6335 115.604 21.2756C115.281 20.9119 114.829 20.7301 114.249 20.7301C113.59 20.7301 113.042 20.9403 112.604 21.3608C112.167 21.7756 111.897 22.3239 111.795 23.0057L110.44 31H106.92L108.3 22.8352C108.397 22.1875 108.292 21.6761 107.985 21.3011C107.684 20.9205 107.232 20.7301 106.63 20.7301C106.232 20.7301 105.854 20.8324 105.496 21.0369C105.144 21.2358 104.846 21.517 104.602 21.8807C104.357 22.2386 104.198 22.6591 104.124 23.142L102.795 31H99.1726Z" fill="white"/>
<path d="M48.4261 31L47.4396 30.8362L47.2464 32H48.4261V31ZM51.3239 13.5455V12.5455H50.4762L50.3374 13.3817L51.3239 13.5455ZM55.0142 13.5455L56.0008 13.7088L56.1934 12.5455H55.0142V13.5455ZM52.6278 27.9574L51.6413 27.794L51.4486 28.9574H52.6278V27.9574ZM60.1108 27.9574L61.097 28.1231L61.2929 26.9574H60.1108V27.9574ZM59.5994 31V32H60.4454L60.5856 31.1657L59.5994 31ZM49.4126 31.1638L52.3104 13.7092L50.3374 13.3817L47.4396 30.8362L49.4126 31.1638ZM51.3239 14.5455H55.0142V12.5455H51.3239V14.5455ZM54.0276 13.3821L51.6413 27.794L53.6144 28.1207L56.0008 13.7088L54.0276 13.3821ZM52.6278 28.9574H60.1108V26.9574H52.6278V28.9574ZM59.1246 27.7916L58.6133 30.8343L60.5856 31.1657L61.097 28.1231L59.1246 27.7916ZM59.5994 30H48.4261V32H59.5994V30ZM63.5178 30.8125L63.0773 31.7103L63.0875 31.7152L63.5178 30.8125ZM62.1882 29.5L61.2903 29.9402L62.1882 29.5ZM61.9751 27.3438L60.9896 27.1744L60.9886 27.1804L61.9751 27.3438ZM62.6825 25.5199L61.8682 24.9395L61.8669 24.9413L62.6825 25.5199ZM63.9695 24.3267L63.4578 23.4675L63.4578 23.4675L63.9695 24.3267ZM65.6484 23.6364L65.3996 22.6678L65.3975 22.6684L65.6484 23.6364ZM67.5661 23.3125L67.6519 24.3088L67.661 24.308L67.67 24.3071L67.5661 23.3125ZM69.424 23.0824L69.2728 22.0939L69.2711 22.0942L69.424 23.0824ZM70.5064 22.767L71.0025 23.6353L71.0102 23.6309L71.0179 23.6263L70.5064 22.767ZM70.9411 22.1364L71.9246 22.317L71.9411 22.2274V22.1364H70.9411ZM70.9411 22.0852L69.9535 21.9276L69.9411 22.0059V22.0852H70.9411ZM70.6428 20.8409L69.9085 21.5198L69.9151 21.527L69.9219 21.534L70.6428 20.8409ZM67.6513 20.8153L67.1213 19.9673L67.1165 19.9704L67.6513 20.8153ZM66.6882 21.8977L66.606 22.8943L67.3155 22.9529L67.603 22.3017L66.6882 21.8977ZM63.3814 21.625L62.444 21.2768L61.9847 22.5132L63.2992 22.6216L63.3814 21.625ZM64.7195 19.5625L65.4162 20.2798L65.4163 20.2797L64.7195 19.5625ZM66.8928 18.2159L67.2391 19.1541L67.2446 19.152L66.8928 18.2159ZM71.7763 17.9943L71.5154 18.9597L71.5175 18.9603L71.7763 17.9943ZM73.4212 18.7869L72.8072 19.5763L72.8119 19.5799L73.4212 18.7869ZM74.4268 20.1676L73.487 20.5094L73.4913 20.5208L74.4268 20.1676ZM74.5547 22.1705L75.541 22.3352L75.542 22.329L74.5547 22.1705ZM73.0803 31V32H73.9271L74.0666 31.1647L73.0803 31ZM69.6371 31L68.6511 30.8333L68.4539 32H69.6371V31ZM69.9439 29.1847L70.9299 29.3513L71.1271 28.1847H69.9439V29.1847ZM69.8416 29.1847V28.1847H69.3126L69.0149 28.622L69.8416 29.1847ZM68.8189 30.267L69.4243 31.063L69.4313 31.0576L68.8189 30.267ZM67.4297 30.9915L67.7397 31.9423L67.749 31.9391L67.4297 30.9915ZM68.5888 28.4261L69.0174 29.3297L69.0223 29.3273L68.5888 28.4261ZM69.6967 27.5568L68.9206 26.9262L68.9147 26.9336L69.6967 27.5568ZM70.2592 26.321L71.2447 26.4914L71.2467 26.4785L70.2592 26.321ZM70.4808 24.9318L71.4683 25.0893L71.8229 22.8668L69.9358 24.0934L70.4808 24.9318ZM69.9865 25.1278L69.732 24.1607L69.7256 24.1625L69.9865 25.1278ZM69.2962 25.2898L69.4791 26.2729L69.4878 26.2713L69.4966 26.2695L69.2962 25.2898ZM68.5547 25.4176L68.6898 26.4084L68.7008 26.4069L68.7118 26.4052L68.5547 25.4176ZM67.8814 25.5199L68.0228 26.5098L68.0366 26.5079L68.0504 26.5055L67.8814 25.5199ZM66.7053 25.8182L67.0714 26.7487L67.0714 26.7487L66.7053 25.8182ZM65.8615 26.3722L66.5866 27.061L66.5949 27.0519L65.8615 26.3722ZM65.4609 27.2244L66.4483 27.3833L66.4499 27.3728L65.4609 27.2244ZM65.8104 28.358L65.1688 29.125L65.1763 29.1313L65.184 29.1375L65.8104 28.358ZM65.674 30.2472C64.9596 30.2472 64.3941 30.1224 63.948 29.9098L63.0875 31.7152C63.8573 32.0821 64.7293 32.2472 65.674 32.2472V30.2472ZM63.9582 29.9147C63.5465 29.7127 63.2686 29.4321 63.0861 29.0598L61.2903 29.9402C61.676 30.727 62.2845 31.3213 63.0773 31.7103L63.9582 29.9147ZM63.0861 29.0598C62.9207 28.7224 62.8421 28.2298 62.9617 27.5071L60.9886 27.1804C60.8241 28.1736 60.8875 29.1185 61.2903 29.9402L63.0861 29.0598ZM62.9607 27.5131C63.0661 26.8998 63.2558 26.4402 63.4982 26.0984L61.8669 24.9413C61.4161 25.5769 61.1342 26.3331 60.9896 27.1744L62.9607 27.5131ZM63.4969 26.1002C63.7713 25.7152 64.0983 25.4138 64.4811 25.1859L63.4578 23.4675C62.8292 23.8418 62.2983 24.3359 61.8682 24.9395L63.4969 26.1002ZM64.4811 25.1859C64.8995 24.9368 65.3703 24.7415 65.8994 24.6044L65.3975 22.6684C64.6993 22.8494 64.0508 23.1144 63.4578 23.4675L64.4811 25.1859ZM65.8972 24.6049C66.4613 24.46 67.0459 24.361 67.6519 24.3088L67.4802 22.3162C66.768 22.3776 66.0742 22.4945 65.3996 22.6678L65.8972 24.6049ZM67.67 24.3071C68.4395 24.2267 69.0768 24.148 69.5769 24.0706L69.2711 22.0942C68.8166 22.1645 68.2154 22.2392 67.4621 22.3179L67.67 24.3071ZM69.5752 24.0709C70.1002 23.9906 70.6047 23.8626 71.0025 23.6353L70.0103 21.8988C69.9308 21.9442 69.7138 22.0264 69.2728 22.0939L69.5752 24.0709ZM71.0179 23.6263C71.5098 23.3335 71.8225 22.8729 71.9246 22.317L69.9575 21.9557C69.9559 21.9646 69.9549 21.9653 69.957 21.9601C69.9592 21.9546 69.9636 21.9457 69.9706 21.9354C69.9778 21.9251 69.9852 21.9169 69.9913 21.9113C69.9972 21.9058 69.9994 21.9051 69.9949 21.9078L71.0179 23.6263ZM71.9411 22.1364V22.0852H69.9411V22.1364H71.9411ZM71.9286 22.2428C72.046 21.5066 71.9308 20.7377 71.3636 20.1478L69.9219 21.534C69.9356 21.5482 69.9479 21.565 69.958 21.6067C69.97 21.6568 69.9808 21.7571 69.9535 21.9276L71.9286 22.2428ZM71.377 20.1621C70.8323 19.5728 70.0586 19.3892 69.3047 19.3892V21.3892C69.7781 21.3892 69.8964 21.5067 69.9085 21.5198L71.377 20.1621ZM69.3047 19.3892C68.5088 19.3892 67.7651 19.565 67.1213 19.9673L68.1813 21.6633C68.4466 21.4975 68.8051 21.3892 69.3047 21.3892V19.3892ZM67.1165 19.9704C66.5193 20.3483 66.0555 20.855 65.7734 21.4938L67.603 22.3017C67.7073 22.0654 67.8855 21.8505 68.1861 21.6603L67.1165 19.9704ZM66.7704 20.9011L63.4636 20.6284L63.2992 22.6216L66.606 22.8943L66.7704 20.9011ZM64.3188 21.9732C64.5636 21.3142 64.9285 20.7536 65.4162 20.2798L64.0227 18.8452C63.3172 19.5305 62.7901 20.3449 62.444 21.2768L64.3188 21.9732ZM65.4163 20.2797C65.9112 19.7989 66.5136 19.4218 67.239 19.154L66.5465 17.2778C65.5788 17.635 64.7323 18.1557 64.0226 18.8453L65.4163 20.2797ZM67.2446 19.152C67.962 18.8823 68.7892 18.7386 69.7393 18.7386V16.7386C68.5872 16.7386 67.5167 16.9131 66.5409 17.2798L67.2446 19.152ZM69.7393 18.7386C70.3883 18.7386 70.9787 18.8146 71.5154 18.9597L72.0372 17.029C71.3125 16.8331 70.5449 16.7386 69.7393 16.7386V18.7386ZM71.5175 18.9603C72.0416 19.1006 72.4653 19.3103 72.8072 19.5763L74.0351 17.9976C73.4566 17.5476 72.7837 17.2289 72.035 17.0284L71.5175 18.9603ZM72.8119 19.5799C73.124 19.8197 73.3462 20.1221 73.4871 20.5094L75.3666 19.8259C75.0984 19.0881 74.6501 18.4701 74.0304 17.9939L72.8119 19.5799ZM73.4913 20.5208C73.6231 20.8699 73.6734 21.3516 73.5673 22.0119L75.542 22.329C75.686 21.4325 75.6511 20.579 75.3624 19.8144L73.4913 20.5208ZM73.5683 22.0057L72.0939 30.8353L74.0666 31.1647L75.541 22.3352L73.5683 22.0057ZM73.0803 30H69.6371V32H73.0803V30ZM70.6231 31.1667L70.9299 29.3513L68.9579 29.018L68.6511 30.8333L70.6231 31.1667ZM69.9439 28.1847H69.8416V30.1847H69.9439V28.1847ZM69.0149 28.622C68.7974 28.9417 68.5296 29.2262 68.2065 29.4765L69.4313 31.0576C69.915 30.6829 70.3291 30.2458 70.6683 29.7473L69.0149 28.622ZM68.2135 29.4711C67.9039 29.7066 67.5392 29.8993 67.1104 30.0438L67.749 31.9391C68.3656 31.7314 68.9271 31.4411 69.4243 31.063L68.2135 29.4711ZM67.1197 30.0407C66.713 30.1733 66.2347 30.2472 65.674 30.2472V32.2472C66.4088 32.2472 67.1009 32.1505 67.7397 31.9422L67.1197 30.0407ZM67.1314 29.7415C67.7964 29.7415 68.4301 29.6082 69.0174 29.3296L68.1602 27.5226C67.8611 27.6645 67.5232 27.7415 67.1314 27.7415V29.7415ZM69.0223 29.3273C69.5969 29.0509 70.0886 28.6696 70.4788 28.18L68.9147 26.9336C68.7253 27.1713 68.4784 27.3696 68.1553 27.525L69.0223 29.3273ZM70.4728 28.1874C70.876 27.6913 71.1358 27.1209 71.2446 26.4913L69.2738 26.1507C69.2236 26.4416 69.1084 26.6951 68.9206 26.9262L70.4728 28.1874ZM71.2467 26.4785L71.4683 25.0893L69.4933 24.7743L69.2717 26.1635L71.2467 26.4785ZM69.9358 24.0934C69.9486 24.0851 69.9418 24.0914 69.9034 24.1066C69.8664 24.1213 69.8106 24.1401 69.732 24.1608L70.241 26.0949C70.5024 26.0261 70.7837 25.9276 71.0258 25.7703L69.9358 24.0934ZM69.7256 24.1625C69.5384 24.2131 69.3288 24.2624 69.0958 24.3101L69.4966 26.2695C69.7635 26.2149 70.0141 26.1563 70.2474 26.0932L69.7256 24.1625ZM69.1133 24.3066C68.8777 24.3505 68.6391 24.3916 68.3976 24.43L68.7118 26.4052C68.9703 26.3641 69.226 26.32 69.4791 26.2729L69.1133 24.3066ZM68.4196 24.4268C68.1609 24.4621 67.9249 24.4978 67.7124 24.5343L68.0504 26.5055C68.2356 26.4738 68.4485 26.4414 68.6898 26.4084L68.4196 24.4268ZM67.74 24.5299C67.2393 24.6015 66.77 24.7181 66.3391 24.8876L67.0714 26.7487C67.3337 26.6455 67.6484 26.5633 68.0228 26.5098L67.74 24.5299ZM66.3391 24.8876C65.8768 25.0695 65.4622 25.3319 65.1281 25.6924L66.5949 27.0519C66.6926 26.9465 66.8405 26.8396 67.0714 26.7487L66.3391 24.8876ZM65.1365 25.6834C64.7652 26.0743 64.5504 26.5534 64.472 27.0761L66.4499 27.3728C66.4737 27.2136 66.526 27.1246 66.5865 27.0609L65.1365 25.6834ZM64.4736 27.0656C64.353 27.8151 64.5209 28.5831 65.1688 29.125L66.4519 27.5909C66.4421 27.5827 66.441 27.5798 66.4431 27.5828C66.4453 27.5861 66.4454 27.5878 66.4443 27.584C66.4417 27.5755 66.4265 27.5181 66.4482 27.3833L64.4736 27.0656ZM65.184 29.1375C65.7364 29.5814 66.4263 29.7415 67.1314 29.7415V27.7415C66.7115 27.7415 66.5207 27.6459 66.4368 27.5784L65.184 29.1375ZM85.0419 17.9091L86.0285 18.0725L86.2212 16.9091H85.0419V17.9091ZM84.5902 20.6364V21.6364H85.4382L85.5768 20.7998L84.5902 20.6364ZM76.6982 20.6364L75.7121 20.47L75.5153 21.6364H76.6982V20.6364ZM77.1584 17.9091V16.9091H76.313L76.1723 17.7427L77.1584 17.9091ZM79.4595 14.7727V13.7727H78.6113L78.4729 14.6096L79.4595 14.7727ZM83.0902 14.7727L84.0767 14.9367L84.2701 13.7727H83.0902V14.7727ZM81.0618 26.9773L82.0477 27.1444L82.0483 27.1412L81.0618 26.9773ZM81.0874 27.7614L80.1569 28.1279L80.1609 28.1377L81.0874 27.7614ZM81.4538 28.1449L81.0562 29.0625L81.0671 29.0671L81.4538 28.1449ZM82.6044 28.2131L82.7636 29.2003L82.7791 29.1978L82.7944 29.1948L82.6044 28.2131ZM83.005 28.1364L84.0037 28.086L83.946 26.9425L82.8207 27.1535L83.005 28.1364ZM83.1413 30.8381L83.4336 31.7944L84.1794 31.5665L84.1401 30.7877L83.1413 30.8381ZM82.3146 31.0426L82.1062 30.0646L82.1029 30.0653L82.3146 31.0426ZM81.1044 31.179L81.0678 30.1796L81.066 30.1797L81.1044 31.179ZM78.8544 30.8295L78.4483 31.7434L78.4554 31.7465L78.8544 30.8295ZM77.5334 29.5767L78.4367 29.1478L78.4367 29.1478L77.5334 29.5767ZM77.3629 27.4545L78.3471 27.6317L78.3484 27.6247L78.3495 27.6177L77.3629 27.4545ZM84.0553 17.7457L83.6036 20.473L85.5768 20.7998L86.0285 18.0725L84.0553 17.7457ZM84.5902 19.6364H76.6982V21.6364H84.5902V19.6364ZM77.6842 20.8028L78.1444 18.0755L76.1723 17.7427L75.7121 20.47L77.6842 20.8028ZM77.1584 18.9091H85.0419V16.9091H77.1584V18.9091ZM79.4595 15.7727H83.0902V13.7727H79.4595V15.7727ZM82.1037 14.6088L80.0753 26.8133L82.0483 27.1412L84.0767 14.9367L82.1037 14.6088ZM80.0759 26.8102C80.0071 27.2157 79.9849 27.6911 80.1569 28.1279L82.0178 27.3948C82.0332 27.434 82.0266 27.4406 82.025 27.3921C82.0235 27.3447 82.0274 27.2645 82.0477 27.1444L80.0759 26.8102ZM80.1609 28.1377C80.3272 28.5471 80.6308 28.8781 81.0562 29.0624L81.8514 27.2273C81.8824 27.2408 81.9216 27.2653 81.9574 27.3028C81.9924 27.3394 82.0085 27.372 82.0138 27.385L80.1609 28.1377ZM81.0671 29.0671C81.3947 29.2045 81.743 29.2557 82.0845 29.2557V27.2557C81.9374 27.2557 81.8652 27.233 81.8406 27.2227L81.0671 29.0671ZM82.0845 29.2557C82.3107 29.2557 82.5373 29.2368 82.7636 29.2003L82.4452 27.2258C82.3192 27.2461 82.1992 27.2557 82.0845 27.2557V29.2557ZM82.7944 29.1948C82.9701 29.1609 83.1013 29.1357 83.1893 29.1192L82.8207 27.1535C82.7268 27.1711 82.591 27.1971 82.4144 27.2313L82.7944 29.1948ZM82.0062 28.1868L82.1426 30.8885L84.1401 30.7877L84.0037 28.086L82.0062 28.1868ZM82.8491 29.8817C82.6842 29.9321 82.4403 29.9934 82.1062 30.0646L82.5231 32.0207C82.8822 31.9441 83.1894 31.869 83.4336 31.7944L82.8491 29.8817ZM82.1029 30.0653C81.8351 30.1233 81.4931 30.1641 81.0678 30.1796L81.141 32.1783C81.6475 32.1598 82.1123 32.1096 82.5264 32.0199L82.1029 30.0653ZM81.066 30.1797C80.2831 30.2098 79.692 30.1035 79.2534 29.9126L78.4554 31.7465C79.244 32.0897 80.153 32.2163 81.1428 32.1782L81.066 30.1797ZM79.2605 29.9157C78.8468 29.7318 78.593 29.4769 78.4367 29.1478L76.63 30.0056C77.0079 30.8015 77.6348 31.3818 78.4483 31.7434L79.2605 29.9157ZM78.4367 29.1478C78.2881 28.8348 78.2166 28.3566 78.3471 27.6317L76.3787 27.2774C76.2024 28.257 76.2445 29.1936 76.63 30.0056L78.4367 29.1478ZM78.3495 27.6177L80.4461 14.9358L78.4729 14.6096L76.3763 27.2914L78.3495 27.6177ZM86.7678 30.8125L86.3273 31.7103L86.3375 31.7152L86.7678 30.8125ZM85.4382 29.5L84.5403 29.9402L85.4382 29.5ZM85.2251 27.3438L84.2396 27.1744L84.2386 27.1804L85.2251 27.3438ZM85.9325 25.5199L85.1182 24.9395L85.1169 24.9413L85.9325 25.5199ZM87.2195 24.3267L86.7078 23.4675L86.7078 23.4675L87.2195 24.3267ZM88.8984 23.6364L88.6496 22.6678L88.6475 22.6684L88.8984 23.6364ZM90.8161 23.3125L90.9019 24.3088L90.911 24.308L90.92 24.3071L90.8161 23.3125ZM92.674 23.0824L92.5228 22.0939L92.5211 22.0942L92.674 23.0824ZM93.7564 22.767L94.2525 23.6353L94.2602 23.6309L94.2679 23.6263L93.7564 22.767ZM94.1911 22.1364L95.1746 22.317L95.1911 22.2274V22.1364H94.1911ZM94.1911 22.0852L93.2035 21.9276L93.1911 22.0059V22.0852H94.1911ZM93.8928 20.8409L93.1585 21.5198L93.1651 21.527L93.1719 21.534L93.8928 20.8409ZM90.9013 20.8153L90.3713 19.9673L90.3665 19.9704L90.9013 20.8153ZM89.9382 21.8977L89.856 22.8943L90.5655 22.9529L90.853 22.3017L89.9382 21.8977ZM86.6314 21.625L85.694 21.2768L85.2347 22.5132L86.5492 22.6216L86.6314 21.625ZM87.9695 19.5625L88.6662 20.2798L88.6663 20.2797L87.9695 19.5625ZM90.1428 18.2159L90.4891 19.1541L90.4946 19.152L90.1428 18.2159ZM95.0263 17.9943L94.7654 18.9597L94.7675 18.9603L95.0263 17.9943ZM96.6712 18.7869L96.0572 19.5763L96.0619 19.5799L96.6712 18.7869ZM97.6768 20.1676L96.737 20.5094L96.7413 20.5208L97.6768 20.1676ZM97.8047 22.1705L98.791 22.3352L98.792 22.329L97.8047 22.1705ZM96.3303 31V32H97.1771L97.3166 31.1647L96.3303 31ZM92.8871 31L91.9011 30.8333L91.7039 32H92.8871V31ZM93.1939 29.1847L94.1799 29.3513L94.3771 28.1847H93.1939V29.1847ZM93.0916 29.1847V28.1847H92.5626L92.2649 28.622L93.0916 29.1847ZM92.0689 30.267L92.6743 31.063L92.6813 31.0576L92.0689 30.267ZM90.6797 30.9915L90.9897 31.9423L90.999 31.9391L90.6797 30.9915ZM91.8388 28.4261L92.2674 29.3297L92.2723 29.3273L91.8388 28.4261ZM92.9467 27.5568L92.1706 26.9262L92.1647 26.9336L92.9467 27.5568ZM93.5092 26.321L94.4947 26.4914L94.4967 26.4785L93.5092 26.321ZM93.7308 24.9318L94.7183 25.0893L95.0729 22.8668L93.1858 24.0934L93.7308 24.9318ZM93.2365 25.1278L92.982 24.1607L92.9756 24.1625L93.2365 25.1278ZM92.5462 25.2898L92.7291 26.2729L92.7378 26.2713L92.7466 26.2695L92.5462 25.2898ZM91.8047 25.4176L91.9398 26.4084L91.9508 26.4069L91.9618 26.4052L91.8047 25.4176ZM91.1314 25.5199L91.2728 26.5098L91.2866 26.5079L91.3004 26.5055L91.1314 25.5199ZM89.9553 25.8182L90.3214 26.7487L90.3214 26.7487L89.9553 25.8182ZM89.1115 26.3722L89.8366 27.061L89.8449 27.0519L89.1115 26.3722ZM88.7109 27.2244L89.6983 27.3833L89.6999 27.3728L88.7109 27.2244ZM89.0604 28.358L88.4188 29.125L88.4263 29.1313L88.434 29.1375L89.0604 28.358ZM88.924 30.2472C88.2096 30.2472 87.6441 30.1224 87.198 29.9098L86.3375 31.7152C87.1073 32.0821 87.9793 32.2472 88.924 32.2472V30.2472ZM87.2082 29.9147C86.7965 29.7127 86.5186 29.4321 86.3361 29.0598L84.5403 29.9402C84.926 30.727 85.5345 31.3213 86.3273 31.7103L87.2082 29.9147ZM86.3361 29.0598C86.1707 28.7224 86.0921 28.2298 86.2117 27.5071L84.2386 27.1804C84.0741 28.1736 84.1375 29.1185 84.5403 29.9402L86.3361 29.0598ZM86.2107 27.5131C86.3161 26.8998 86.5058 26.4402 86.7482 26.0984L85.1169 24.9413C84.6661 25.5769 84.3842 26.3331 84.2396 27.1744L86.2107 27.5131ZM86.7469 26.1002C87.0213 25.7152 87.3483 25.4138 87.7311 25.1859L86.7078 23.4675C86.0792 23.8418 85.5483 24.3359 85.1182 24.9395L86.7469 26.1002ZM87.7311 25.1859C88.1495 24.9368 88.6203 24.7415 89.1494 24.6044L88.6475 22.6684C87.9493 22.8494 87.3008 23.1144 86.7078 23.4675L87.7311 25.1859ZM89.1472 24.6049C89.7113 24.46 90.2959 24.361 90.9019 24.3088L90.7302 22.3162C90.018 22.3776 89.3242 22.4945 88.6496 22.6678L89.1472 24.6049ZM90.92 24.3071C91.6895 24.2267 92.3268 24.148 92.8269 24.0706L92.5211 22.0942C92.0666 22.1645 91.4654 22.2392 90.7121 22.3179L90.92 24.3071ZM92.8252 24.0709C93.3502 23.9906 93.8547 23.8626 94.2525 23.6353L93.2603 21.8988C93.1808 21.9442 92.9638 22.0264 92.5228 22.0939L92.8252 24.0709ZM94.2679 23.6263C94.7598 23.3335 95.0725 22.8729 95.1746 22.317L93.2075 21.9557C93.2059 21.9646 93.2049 21.9653 93.207 21.9601C93.2092 21.9546 93.2136 21.9457 93.2206 21.9354C93.2278 21.9251 93.2352 21.9169 93.2413 21.9113C93.2472 21.9058 93.2494 21.9051 93.2449 21.9078L94.2679 23.6263ZM95.1911 22.1364V22.0852H93.1911V22.1364H95.1911ZM95.1786 22.2428C95.296 21.5066 95.1808 20.7377 94.6136 20.1478L93.1719 21.534C93.1856 21.5482 93.1979 21.565 93.208 21.6067C93.22 21.6568 93.2308 21.7571 93.2035 21.9276L95.1786 22.2428ZM94.627 20.1621C94.0823 19.5728 93.3086 19.3892 92.5547 19.3892V21.3892C93.0281 21.3892 93.1464 21.5067 93.1585 21.5198L94.627 20.1621ZM92.5547 19.3892C91.7588 19.3892 91.0151 19.565 90.3713 19.9673L91.4313 21.6633C91.6966 21.4975 92.0551 21.3892 92.5547 21.3892V19.3892ZM90.3665 19.9704C89.7693 20.3483 89.3055 20.855 89.0234 21.4938L90.853 22.3017C90.9573 22.0654 91.1355 21.8505 91.4361 21.6603L90.3665 19.9704ZM90.0204 20.9011L86.7136 20.6284L86.5492 22.6216L89.856 22.8943L90.0204 20.9011ZM87.5688 21.9732C87.8136 21.3142 88.1785 20.7536 88.6662 20.2798L87.2727 18.8452C86.5672 19.5305 86.0401 20.3449 85.694 21.2768L87.5688 21.9732ZM88.6663 20.2797C89.1612 19.7989 89.7636 19.4218 90.489 19.154L89.7965 17.2778C88.8288 17.635 87.9823 18.1557 87.2726 18.8453L88.6663 20.2797ZM90.4946 19.152C91.212 18.8823 92.0392 18.7386 92.9893 18.7386V16.7386C91.8372 16.7386 90.7667 16.9131 89.7909 17.2798L90.4946 19.152ZM92.9893 18.7386C93.6383 18.7386 94.2287 18.8146 94.7654 18.9597L95.2872 17.029C94.5625 16.8331 93.7949 16.7386 92.9893 16.7386V18.7386ZM94.7675 18.9603C95.2916 19.1006 95.7153 19.3103 96.0572 19.5763L97.2851 17.9976C96.7066 17.5476 96.0337 17.2289 95.285 17.0284L94.7675 18.9603ZM96.0619 19.5799C96.374 19.8197 96.5962 20.1221 96.7371 20.5094L98.6166 19.8259C98.3484 19.0881 97.9001 18.4701 97.2804 17.9939L96.0619 19.5799ZM96.7413 20.5208C96.8731 20.8699 96.9234 21.3516 96.8173 22.0119L98.792 22.329C98.936 21.4325 98.9011 20.579 98.6124 19.8144L96.7413 20.5208ZM96.8183 22.0057L95.3439 30.8353L97.3166 31.1647L98.791 22.3352L96.8183 22.0057ZM96.3303 30H92.8871V32H96.3303V30ZM93.8731 31.1667L94.1799 29.3513L92.2079 29.018L91.9011 30.8333L93.8731 31.1667ZM93.1939 28.1847H93.0916V30.1847H93.1939V28.1847ZM92.2649 28.622C92.0474 28.9417 91.7796 29.2262 91.4565 29.4765L92.6813 31.0576C93.165 30.6829 93.5791 30.2458 93.9183 29.7473L92.2649 28.622ZM91.4635 29.4711C91.1539 29.7066 90.7892 29.8993 90.3604 30.0438L90.999 31.9391C91.6156 31.7314 92.1771 31.4411 92.6743 31.063L91.4635 29.4711ZM90.3697 30.0407C89.963 30.1733 89.4847 30.2472 88.924 30.2472V32.2472C89.6588 32.2472 90.3509 32.1505 90.9897 31.9422L90.3697 30.0407ZM90.3814 29.7415C91.0464 29.7415 91.6801 29.6082 92.2674 29.3296L91.4102 27.5226C91.1111 27.6645 90.7732 27.7415 90.3814 27.7415V29.7415ZM92.2723 29.3273C92.8469 29.0509 93.3386 28.6696 93.7288 28.18L92.1647 26.9336C91.9753 27.1713 91.7284 27.3696 91.4053 27.525L92.2723 29.3273ZM93.7228 28.1874C94.126 27.6913 94.3858 27.1209 94.4946 26.4913L92.5238 26.1507C92.4736 26.4416 92.3584 26.6951 92.1706 26.9262L93.7228 28.1874ZM94.4967 26.4785L94.7183 25.0893L92.7433 24.7743L92.5217 26.1635L94.4967 26.4785ZM93.1858 24.0934C93.1986 24.0851 93.1918 24.0914 93.1534 24.1066C93.1164 24.1213 93.0606 24.1401 92.982 24.1608L93.491 26.0949C93.7524 26.0261 94.0337 25.9276 94.2758 25.7703L93.1858 24.0934ZM92.9756 24.1625C92.7884 24.2131 92.5788 24.2624 92.3458 24.3101L92.7466 26.2695C93.0135 26.2149 93.2641 26.1563 93.4974 26.0932L92.9756 24.1625ZM92.3633 24.3066C92.1277 24.3505 91.8891 24.3916 91.6476 24.43L91.9618 26.4052C92.2203 26.3641 92.476 26.32 92.7291 26.2729L92.3633 24.3066ZM91.6696 24.4268C91.4109 24.4621 91.1749 24.4978 90.9624 24.5343L91.3004 26.5055C91.4856 26.4738 91.6985 26.4414 91.9398 26.4084L91.6696 24.4268ZM90.99 24.5299C90.4893 24.6015 90.02 24.7181 89.5891 24.8876L90.3214 26.7487C90.5837 26.6455 90.8984 26.5633 91.2728 26.5098L90.99 24.5299ZM89.5891 24.8876C89.1268 25.0695 88.7122 25.3319 88.3781 25.6924L89.8449 27.0519C89.9426 26.9465 90.0905 26.8396 90.3214 26.7487L89.5891 24.8876ZM88.3865 25.6834C88.0152 26.0743 87.8004 26.5534 87.722 27.0761L89.6999 27.3728C89.7237 27.2136 89.776 27.1246 89.8365 27.0609L88.3865 25.6834ZM87.7236 27.0656C87.603 27.8151 87.7709 28.5831 88.4188 29.125L89.7019 27.5909C89.6921 27.5827 89.691 27.5798 89.6931 27.5828C89.6953 27.5861 89.6954 27.5878 89.6943 27.584C89.6917 27.5755 89.6765 27.5181 89.6982 27.3833L87.7236 27.0656ZM88.434 29.1375C88.9864 29.5814 89.6763 29.7415 90.3814 29.7415V27.7415C89.9615 27.7415 89.7707 27.6459 89.6868 27.5784L88.434 29.1375ZM99.1726 31L98.1862 30.8356L97.9921 32H99.1726V31ZM101.354 17.9091V16.9091H100.507L100.368 17.7447L101.354 17.9091ZM104.806 17.9091L105.793 18.0694L105.982 16.9091H104.806V17.9091ZM104.431 20.2188L103.444 20.0585L103.256 21.2188H104.431V20.2188ZM104.576 20.2188V21.2188H105.184L105.464 20.6791L104.576 20.2188ZM106.238 18.4034L105.712 17.5531L105.709 17.555L106.238 18.4034ZM110.815 18.4119L110.187 19.1905L110.196 19.1974L110.815 18.4119ZM111.786 20.2188L110.792 20.33L110.892 21.2188H111.786V20.2188ZM111.923 20.2188V21.2188H112.532L112.812 20.6767L111.923 20.2188ZM113.67 18.4205L114.169 19.2868L114.174 19.284L113.67 18.4205ZM119.056 18.9062L118.285 19.5425L118.285 19.5425L119.056 18.9062ZM119.661 22.196L118.675 22.0297L118.675 22.0318L119.661 22.196ZM118.195 31V32H119.043L119.182 31.1642L118.195 31ZM114.565 31L113.579 30.8337L113.382 32H114.565V31ZM115.928 22.9119L116.914 23.0782L116.916 23.0679L116.918 23.0576L115.928 22.9119ZM115.604 21.2756L114.858 21.9407L114.863 21.9465L115.604 21.2756ZM112.604 21.3608L113.292 22.0865L113.297 22.0818L112.604 21.3608ZM111.795 23.0057L112.781 23.1728L112.782 23.1634L112.784 23.154L111.795 23.0057ZM110.44 31V32H111.284L111.426 31.1671L110.44 31ZM106.92 31L105.934 30.8333L105.736 32H106.92V31ZM108.3 22.8352L109.286 23.002L109.288 22.9924L109.289 22.9827L108.3 22.8352ZM107.985 21.3011L107.201 21.9215L107.206 21.928L107.211 21.9344L107.985 21.3011ZM105.496 21.0369L105.988 21.9078L105.993 21.9052L105.496 21.0369ZM104.602 21.8807L105.428 22.4444L105.432 22.4384L104.602 21.8807ZM104.124 23.142L105.11 23.3089L105.112 23.3011L105.113 23.2932L104.124 23.142ZM102.795 31V32H103.64L103.781 31.1668L102.795 31ZM100.159 31.1644L102.341 18.0735L100.368 17.7447L98.1862 30.8356L100.159 31.1644ZM101.354 18.9091H104.806V16.9091H101.354V18.9091ZM103.819 17.7488L103.444 20.0585L105.418 20.379L105.793 18.0694L103.819 17.7488ZM104.431 21.2188H104.576V19.2188H104.431V21.2188ZM105.464 20.6791C105.782 20.0658 106.214 19.5969 106.767 19.2518L105.709 17.555C104.841 18.0962 104.166 18.8376 103.688 19.7584L105.464 20.6791ZM106.764 19.2537C107.313 18.9143 107.932 18.7386 108.65 18.7386V16.7386C107.583 16.7386 106.595 17.0062 105.712 17.5531L106.764 19.2537ZM108.65 18.7386C109.364 18.7386 109.847 18.9166 110.187 19.1905L111.442 17.6334C110.668 17.0096 109.708 16.7386 108.65 16.7386V18.7386ZM110.196 19.1974C110.532 19.4626 110.735 19.8139 110.792 20.33L112.78 20.1075C112.667 19.1009 112.222 18.2476 111.434 17.6264L110.196 19.1974ZM111.786 21.2188H111.923V19.2188H111.786V21.2188ZM112.812 20.6767C113.104 20.1086 113.546 19.6462 114.169 19.2867L113.17 17.5542C112.237 18.0924 111.514 18.8289 111.034 19.7608L112.812 20.6767ZM114.174 19.284C114.789 18.9247 115.483 18.7386 116.278 18.7386V16.7386C115.152 16.7386 114.107 17.0071 113.165 17.5569L114.174 19.284ZM116.278 18.7386C117.255 18.7386 117.871 19.0408 118.285 19.5425L119.828 18.27C118.957 17.2149 117.721 16.7386 116.278 16.7386V18.7386ZM118.285 19.5425C118.675 20.0153 118.887 20.7763 118.675 22.0297L120.647 22.3623C120.913 20.7862 120.722 19.354 119.828 18.27L118.285 19.5425ZM118.675 22.0318L117.209 30.8358L119.182 31.1642L120.648 22.3603L118.675 22.0318ZM118.195 30H114.565V32H118.195V30ZM115.551 31.1663L116.914 23.0782L114.942 22.7457L113.579 30.8337L115.551 31.1663ZM116.918 23.0576C117.046 22.1888 116.958 21.281 116.346 20.6047L114.863 21.9465C114.899 21.986 115.027 22.1692 114.939 22.7662L116.918 23.0576ZM116.351 20.6105C115.801 19.9932 115.055 19.7301 114.249 19.7301V21.7301C114.603 21.7301 114.76 21.8307 114.858 21.9407L116.351 20.6105ZM114.249 19.7301C113.356 19.7301 112.552 20.0241 111.911 20.6398L113.297 22.0818C113.532 21.8566 113.824 21.7301 114.249 21.7301V19.7301ZM111.916 20.6351C111.294 21.225 110.936 21.9881 110.806 22.8573L112.784 23.154C112.858 22.6596 113.04 22.3262 113.292 22.0865L111.916 20.6351ZM110.809 22.8386L109.454 30.8329L111.426 31.1671L112.781 23.1728L110.809 22.8386ZM110.44 30H106.92V32H110.44V30ZM107.906 31.1667L109.286 23.002L107.314 22.6685L105.934 30.8333L107.906 31.1667ZM109.289 22.9827C109.412 22.1585 109.301 21.3302 108.759 20.6679L107.211 21.9344C107.283 22.0221 107.382 22.2165 107.311 22.6877L109.289 22.9827ZM108.769 20.6807C108.233 20.0032 107.457 19.7301 106.63 19.7301V21.7301C107.008 21.7301 107.135 21.8377 107.201 21.9215L108.769 20.6807ZM106.63 19.7301C106.052 19.7301 105.504 19.8811 105 20.1687L105.993 21.9052C106.205 21.7837 106.413 21.7301 106.63 21.7301V19.7301ZM105.005 20.1661C104.506 20.4478 104.095 20.841 103.772 21.323L105.432 22.4384C105.596 22.1931 105.782 22.0238 105.988 21.9078L105.005 20.1661ZM103.776 21.3169C103.437 21.8134 103.229 22.3789 103.136 22.9909L105.113 23.2932C105.167 22.9393 105.278 22.6638 105.428 22.4444L103.776 21.3169ZM103.138 22.9752L101.809 30.8332L103.781 31.1668L105.11 23.3089L103.138 22.9752ZM102.795 30H99.1726V32H102.795V30Z" fill="#895454" fill-opacity="0.06"/>
</g>
<g style="mix-blend-mode:lighten">
<mask id="path-5-outside-1_149_21" maskUnits="userSpaceOnUse" x="44.153" y="108.601" width="76" height="22" fill="black">
<rect fill="white" x="44.153" y="108.601" width="76" height="22"/>
<path d="M46.153 128.148L49.3493 110.601L61.2013 110.747L60.6377 113.806L52.5703 113.706L51.8175 117.887L59.0983 117.977L58.5347 121.036L51.254 120.946L49.9376 128.195L46.153 128.148Z"/>
<path d="M69.2731 122.817L70.6547 115.26L74.3781 115.306L71.9721 128.467L68.3973 128.422L68.83 126.032L68.6901 126.03C68.2665 126.798 67.6555 127.411 66.8571 127.871C66.0586 128.331 65.1553 128.554 64.1473 128.542C63.2499 128.531 62.495 128.321 61.8824 127.913C61.2757 127.505 60.8489 126.93 60.6019 126.188C60.355 125.447 60.3226 124.562 60.5047 123.533L62.0454 115.154L65.7688 115.2L64.3588 122.928C64.2265 123.705 64.3294 124.322 64.6674 124.778C65.0054 125.235 65.5269 125.467 66.232 125.476C66.6807 125.482 67.1161 125.387 67.5382 125.192C67.9662 124.991 68.3371 124.692 68.6511 124.295C68.965 123.898 69.1724 123.406 69.2731 122.817Z"/>
<path d="M80.0823 120.941L78.6913 128.549L74.9767 128.504L77.3826 115.343L80.9225 115.387L80.5082 117.709L80.6568 117.71C81.092 116.943 81.7 116.341 82.4807 115.904C83.2672 115.467 84.1586 115.255 85.155 115.267C86.0874 115.278 86.8627 115.488 87.4811 115.897C88.1053 116.305 88.5408 116.88 88.7878 117.622C89.0406 118.363 89.073 119.248 88.885 120.276L87.3443 128.656L83.6209 128.61L85.0396 120.882C85.184 120.076 85.0871 119.445 84.7491 118.989C84.417 118.527 83.8751 118.291 83.1234 118.282C82.6223 118.276 82.1606 118.376 81.7384 118.583C81.3161 118.789 80.9596 119.094 80.6689 119.497C80.3841 119.894 80.1886 120.375 80.0823 120.941Z"/>
<path d="M95.1883 128.967C94.1628 128.955 93.2833 128.686 92.5498 128.162C91.8223 127.632 91.3076 126.861 91.0058 125.85C90.7099 124.833 90.6967 123.591 90.966 122.123C91.2417 120.615 91.7181 119.364 92.3951 118.37C93.0723 117.371 93.8685 116.628 94.7839 116.141C95.6993 115.649 96.6494 115.409 97.6342 115.421C98.38 115.43 98.9815 115.563 99.4386 115.821C99.9016 116.073 100.256 116.386 100.502 116.761C100.748 117.131 100.918 117.494 101.012 117.85L101.126 117.851L102.338 111.254L106.053 111.299L102.856 128.847L99.1854 128.802L99.5708 126.694L99.4134 126.692C99.1757 127.056 98.8622 127.415 98.473 127.771C98.0897 128.121 97.6256 128.411 97.0807 128.639C96.5417 128.867 95.9109 128.976 95.1883 128.967ZM96.8687 126.077C97.463 126.084 98.0012 125.931 98.4831 125.616C98.965 125.295 99.3729 124.845 99.7067 124.266C100.04 123.686 100.276 123.004 100.415 122.222C100.559 121.439 100.57 120.758 100.449 120.179C100.329 119.599 100.084 119.149 99.7149 118.83C99.3518 118.51 98.8673 118.347 98.2613 118.34C97.6494 118.332 97.1055 118.489 96.6293 118.809C96.159 119.129 95.7657 119.577 95.4495 120.151C95.1391 120.726 94.915 121.393 94.7771 122.152C94.6391 122.918 94.6217 123.596 94.7249 124.187C94.8281 124.772 95.0582 125.233 95.4153 125.569C95.7724 125.9 96.2569 126.069 96.8687 126.077Z"/>
<path d="M118.782 119.614L115.396 119.779C115.383 119.487 115.304 119.225 115.162 118.994C115.025 118.758 114.82 118.569 114.548 118.429C114.282 118.288 113.945 118.215 113.537 118.21C112.925 118.203 112.379 118.333 111.897 118.602C111.416 118.871 111.141 119.22 111.071 119.648C111.015 119.922 111.085 120.155 111.281 120.346C111.476 120.538 111.873 120.703 112.472 120.842L114.826 121.352C116.081 121.631 116.984 122.08 117.536 122.699C118.093 123.319 118.284 124.122 118.108 125.111C117.952 125.95 117.567 126.681 116.953 127.303C116.339 127.92 115.563 128.397 114.626 128.735C113.69 129.066 112.653 129.225 111.517 129.211C109.693 129.189 108.311 128.806 107.371 128.061C106.43 127.317 105.985 126.318 106.036 125.065L109.675 124.921C109.697 125.459 109.884 125.868 110.236 126.147C110.588 126.421 111.073 126.564 111.691 126.577C112.384 126.597 112.974 126.464 113.461 126.178C113.955 125.887 114.236 125.529 114.306 125.107C114.356 124.81 114.272 124.568 114.053 124.382C113.839 124.196 113.445 124.04 112.87 123.913L110.638 123.43C109.371 123.157 108.465 122.685 107.92 122.014C107.375 121.343 107.196 120.496 107.384 119.474C107.534 118.657 107.89 117.96 108.451 117.383C109.018 116.8 109.743 116.357 110.627 116.053C111.517 115.749 112.518 115.604 113.631 115.618C115.374 115.639 116.68 116.008 117.551 116.722C118.428 117.437 118.838 118.401 118.782 119.614Z"/>
</mask>
<path d="M46.153 128.148L49.3493 110.601L61.2013 110.747L60.6377 113.806L52.5703 113.706L51.8175 117.887L59.0983 117.977L58.5347 121.036L51.254 120.946L49.9376 128.195L46.153 128.148Z" fill="white"/>
<path d="M69.2731 122.817L70.6547 115.26L74.3781 115.306L71.9721 128.467L68.3973 128.422L68.83 126.032L68.6901 126.03C68.2665 126.798 67.6555 127.411 66.8571 127.871C66.0586 128.331 65.1553 128.554 64.1473 128.542C63.2499 128.531 62.495 128.321 61.8824 127.913C61.2757 127.505 60.8489 126.93 60.6019 126.188C60.355 125.447 60.3226 124.562 60.5047 123.533L62.0454 115.154L65.7688 115.2L64.3588 122.928C64.2265 123.705 64.3294 124.322 64.6674 124.778C65.0054 125.235 65.5269 125.467 66.232 125.476C66.6807 125.482 67.1161 125.387 67.5382 125.192C67.9662 124.991 68.3371 124.692 68.6511 124.295C68.965 123.898 69.1724 123.406 69.2731 122.817Z" fill="white"/>
<path d="M80.0823 120.941L78.6913 128.549L74.9767 128.504L77.3826 115.343L80.9225 115.387L80.5082 117.709L80.6568 117.71C81.092 116.943 81.7 116.341 82.4807 115.904C83.2672 115.467 84.1586 115.255 85.155 115.267C86.0874 115.278 86.8627 115.488 87.4811 115.897C88.1053 116.305 88.5408 116.88 88.7878 117.622C89.0406 118.363 89.073 119.248 88.885 120.276L87.3443 128.656L83.6209 128.61L85.0396 120.882C85.184 120.076 85.0871 119.445 84.7491 118.989C84.417 118.527 83.8751 118.291 83.1234 118.282C82.6223 118.276 82.1606 118.376 81.7384 118.583C81.3161 118.789 80.9596 119.094 80.6689 119.497C80.3841 119.894 80.1886 120.375 80.0823 120.941Z" fill="white"/>
<path d="M95.1883 128.967C94.1628 128.955 93.2833 128.686 92.5498 128.162C91.8223 127.632 91.3076 126.861 91.0058 125.85C90.7099 124.833 90.6967 123.591 90.966 122.123C91.2417 120.615 91.7181 119.364 92.3951 118.37C93.0723 117.371 93.8685 116.628 94.7839 116.141C95.6993 115.649 96.6494 115.409 97.6342 115.421C98.38 115.43 98.9815 115.563 99.4386 115.821C99.9016 116.073 100.256 116.386 100.502 116.761C100.748 117.131 100.918 117.494 101.012 117.85L101.126 117.851L102.338 111.254L106.053 111.299L102.856 128.847L99.1854 128.802L99.5708 126.694L99.4134 126.692C99.1757 127.056 98.8622 127.415 98.473 127.771C98.0897 128.121 97.6256 128.411 97.0807 128.639C96.5417 128.867 95.9109 128.976 95.1883 128.967ZM96.8687 126.077C97.463 126.084 98.0012 125.931 98.4831 125.616C98.965 125.295 99.3729 124.845 99.7067 124.266C100.04 123.686 100.276 123.004 100.415 122.222C100.559 121.439 100.57 120.758 100.449 120.179C100.329 119.599 100.084 119.149 99.7149 118.83C99.3518 118.51 98.8673 118.347 98.2613 118.34C97.6494 118.332 97.1055 118.489 96.6293 118.809C96.159 119.129 95.7657 119.577 95.4495 120.151C95.1391 120.726 94.915 121.393 94.7771 122.152C94.6391 122.918 94.6217 123.596 94.7249 124.187C94.8281 124.772 95.0582 125.233 95.4153 125.569C95.7724 125.9 96.2569 126.069 96.8687 126.077Z" fill="white"/>
<path d="M118.782 119.614L115.396 119.779C115.383 119.487 115.304 119.225 115.162 118.994C115.025 118.758 114.82 118.569 114.548 118.429C114.282 118.288 113.945 118.215 113.537 118.21C112.925 118.203 112.379 118.333 111.897 118.602C111.416 118.871 111.141 119.22 111.071 119.648C111.015 119.922 111.085 120.155 111.281 120.346C111.476 120.538 111.873 120.703 112.472 120.842L114.826 121.352C116.081 121.631 116.984 122.08 117.536 122.699C118.093 123.319 118.284 124.122 118.108 125.111C117.952 125.95 117.567 126.681 116.953 127.303C116.339 127.92 115.563 128.397 114.626 128.735C113.69 129.066 112.653 129.225 111.517 129.211C109.693 129.189 108.311 128.806 107.371 128.061C106.43 127.317 105.985 126.318 106.036 125.065L109.675 124.921C109.697 125.459 109.884 125.868 110.236 126.147C110.588 126.421 111.073 126.564 111.691 126.577C112.384 126.597 112.974 126.464 113.461 126.178C113.955 125.887 114.236 125.529 114.306 125.107C114.356 124.81 114.272 124.568 114.053 124.382C113.839 124.196 113.445 124.04 112.87 123.913L110.638 123.43C109.371 123.157 108.465 122.685 107.92 122.014C107.375 121.343 107.196 120.496 107.384 119.474C107.534 118.657 107.89 117.96 108.451 117.383C109.018 116.8 109.743 116.357 110.627 116.053C111.517 115.749 112.518 115.604 113.631 115.618C115.374 115.639 116.68 116.008 117.551 116.722C118.428 117.437 118.838 118.401 118.782 119.614Z" fill="white"/>
<path d="M46.153 128.148L49.3493 110.601L61.2013 110.747L60.6377 113.806L52.5703 113.706L51.8175 117.887L59.0983 117.977L58.5347 121.036L51.254 120.946L49.9376 128.195L46.153 128.148Z" stroke="#895454" stroke-opacity="0.06" stroke-width="2" mask="url(#path-5-outside-1_149_21)"/>
<path d="M69.2731 122.817L70.6547 115.26L74.3781 115.306L71.9721 128.467L68.3973 128.422L68.83 126.032L68.6901 126.03C68.2665 126.798 67.6555 127.411 66.8571 127.871C66.0586 128.331 65.1553 128.554 64.1473 128.542C63.2499 128.531 62.495 128.321 61.8824 127.913C61.2757 127.505 60.8489 126.93 60.6019 126.188C60.355 125.447 60.3226 124.562 60.5047 123.533L62.0454 115.154L65.7688 115.2L64.3588 122.928C64.2265 123.705 64.3294 124.322 64.6674 124.778C65.0054 125.235 65.5269 125.467 66.232 125.476C66.6807 125.482 67.1161 125.387 67.5382 125.192C67.9662 124.991 68.3371 124.692 68.6511 124.295C68.965 123.898 69.1724 123.406 69.2731 122.817Z" stroke="#895454" stroke-opacity="0.06" stroke-width="2" mask="url(#path-5-outside-1_149_21)"/>
<path d="M80.0823 120.941L78.6913 128.549L74.9767 128.504L77.3826 115.343L80.9225 115.387L80.5082 117.709L80.6568 117.71C81.092 116.943 81.7 116.341 82.4807 115.904C83.2672 115.467 84.1586 115.255 85.155 115.267C86.0874 115.278 86.8627 115.488 87.4811 115.897C88.1053 116.305 88.5408 116.88 88.7878 117.622C89.0406 118.363 89.073 119.248 88.885 120.276L87.3443 128.656L83.6209 128.61L85.0396 120.882C85.184 120.076 85.0871 119.445 84.7491 118.989C84.417 118.527 83.8751 118.291 83.1234 118.282C82.6223 118.276 82.1606 118.376 81.7384 118.583C81.3161 118.789 80.9596 119.094 80.6689 119.497C80.3841 119.894 80.1886 120.375 80.0823 120.941Z" stroke="#895454" stroke-opacity="0.06" stroke-width="2" mask="url(#path-5-outside-1_149_21)"/>
<path d="M95.1883 128.967C94.1628 128.955 93.2833 128.686 92.5498 128.162C91.8223 127.632 91.3076 126.861 91.0058 125.85C90.7099 124.833 90.6967 123.591 90.966 122.123C91.2417 120.615 91.7181 119.364 92.3951 118.37C93.0723 117.371 93.8685 116.628 94.7839 116.141C95.6993 115.649 96.6494 115.409 97.6342 115.421C98.38 115.43 98.9815 115.563 99.4386 115.821C99.9016 116.073 100.256 116.386 100.502 116.761C100.748 117.131 100.918 117.494 101.012 117.85L101.126 117.851L102.338 111.254L106.053 111.299L102.856 128.847L99.1854 128.802L99.5708 126.694L99.4134 126.692C99.1757 127.056 98.8622 127.415 98.473 127.771C98.0897 128.121 97.6256 128.411 97.0807 128.639C96.5417 128.867 95.9109 128.976 95.1883 128.967ZM96.8687 126.077C97.463 126.084 98.0012 125.931 98.4831 125.616C98.965 125.295 99.3729 124.845 99.7067 124.266C100.04 123.686 100.276 123.004 100.415 122.222C100.559 121.439 100.57 120.758 100.449 120.179C100.329 119.599 100.084 119.149 99.7149 118.83C99.3518 118.51 98.8673 118.347 98.2613 118.34C97.6494 118.332 97.1055 118.489 96.6293 118.809C96.159 119.129 95.7657 119.577 95.4495 120.151C95.1391 120.726 94.915 121.393 94.7771 122.152C94.6391 122.918 94.6217 123.596 94.7249 124.187C94.8281 124.772 95.0582 125.233 95.4153 125.569C95.7724 125.9 96.2569 126.069 96.8687 126.077Z" stroke="#895454" stroke-opacity="0.06" stroke-width="2" mask="url(#path-5-outside-1_149_21)"/>
<path d="M118.782 119.614L115.396 119.779C115.383 119.487 115.304 119.225 115.162 118.994C115.025 118.758 114.82 118.569 114.548 118.429C114.282 118.288 113.945 118.215 113.537 118.21C112.925 118.203 112.379 118.333 111.897 118.602C111.416 118.871 111.141 119.22 111.071 119.648C111.015 119.922 111.085 120.155 111.281 120.346C111.476 120.538 111.873 120.703 112.472 120.842L114.826 121.352C116.081 121.631 116.984 122.08 117.536 122.699C118.093 123.319 118.284 124.122 118.108 125.111C117.952 125.95 117.567 126.681 116.953 127.303C116.339 127.92 115.563 128.397 114.626 128.735C113.69 129.066 112.653 129.225 111.517 129.211C109.693 129.189 108.311 128.806 107.371 128.061C106.43 127.317 105.985 126.318 106.036 125.065L109.675 124.921C109.697 125.459 109.884 125.868 110.236 126.147C110.588 126.421 111.073 126.564 111.691 126.577C112.384 126.597 112.974 126.464 113.461 126.178C113.955 125.887 114.236 125.529 114.306 125.107C114.356 124.81 114.272 124.568 114.053 124.382C113.839 124.196 113.445 124.04 112.87 123.913L110.638 123.43C109.371 123.157 108.465 122.685 107.92 122.014C107.375 121.343 107.196 120.496 107.384 119.474C107.534 118.657 107.89 117.96 108.451 117.383C109.018 116.8 109.743 116.357 110.627 116.053C111.517 115.749 112.518 115.604 113.631 115.618C115.374 115.639 116.68 116.008 117.551 116.722C118.428 117.437 118.838 118.401 118.782 119.614Z" stroke="#895454" stroke-opacity="0.06" stroke-width="2" mask="url(#path-5-outside-1_149_21)"/>
</g>
</svg>
